<svg width="80" height="80" viewBox="0 0 80 80" fill="none" xmlns="http://www.w3.org/2000/svg">
<circle cx="40" cy="40" r="40" fill="#353535"/>
<g clip-path="url(#clip0)">
<path fill-rule="evenodd" clip-rule="evenodd" d="M48.9111 43.6742V25.9157V22.9088V21.9894C48.9111 20.8943 48.0145 20 46.9195 20H27.3136C26.2185 20 25.3242 20.8943 25.3242 21.9894V43.6742H28.2534H31.0891H48.9111Z" fill="#892920"/>
<path fill-rule="evenodd" clip-rule="evenodd" d="M48.9111 43.6742H31.0892H28.2535H25.3242V52.0949C25.3242 53.1877 26.2185 54.0843 27.3136 54.0843H28.2535H31.0892H46.9195C48.0146 54.0843 48.9112 53.1877 48.9112 52.0949V49.5922V46.5853V43.6742H48.9111Z" fill="white"/>
<path fill-rule="evenodd" clip-rule="evenodd" d="M48.9111 46.5853H51.8404V25.9157V24.8982C51.8404 23.8054 50.9461 22.9088 49.851 22.9088H48.9111V25.9157V43.6742V46.5853Z" fill="white"/>
<path fill-rule="evenodd" clip-rule="evenodd" d="M51.8403 46.5853H48.911V49.5922V52.0949C48.911 53.1877 48.0144 54.0843 46.9194 54.0843H31.0891H28.2534V55.0037C28.2534 56.0988 29.15 56.9931 30.2451 56.9931H31.0891H49.8509C50.946 56.9931 51.8403 56.0988 51.8403 55.0037V49.5922V46.5853Z" fill="#444444"/>
<path fill-rule="evenodd" clip-rule="evenodd" d="M51.8404 46.5854V49.5923H54.6761V27.9051C54.6761 26.8101 53.7796 25.9158 52.6867 25.9158H51.8403V46.5854H51.8404Z" fill="#FFC107"/>
<path fill-rule="evenodd" clip-rule="evenodd" d="M54.6762 49.5922H51.8405V55.0036C51.8405 56.0987 50.9462 56.993 49.8512 56.993H31.0894V58.0105C31.0894 59.1033 31.9837 59.9999 33.0787 59.9999H52.6869C53.7797 59.9999 54.6763 59.1033 54.6763 58.0105V49.5922H54.6762Z" fill="#121212"/>
<path d="M33.7848 26.1589C33.7826 26.1531 33.7803 26.1473 33.7779 26.1416C33.6448 25.8192 33.3335 25.611 32.985 25.611C32.6365 25.611 32.3252 25.8192 32.1921 26.1416C32.19 26.1467 32.1879 26.152 32.1859 26.1572L27.9791 37.2038C27.8605 37.5153 28.0169 37.864 28.3284 37.9827C28.6399 38.1014 28.9887 37.9449 29.1074 37.6335L30.0071 35.2709H35.9325L36.8233 37.6317C36.9145 37.8735 37.1442 38.0225 37.3881 38.0224C37.4589 38.0224 37.5309 38.0099 37.6011 37.9835C37.913 37.8657 38.0705 37.5175 37.9528 37.2056L33.7848 26.1589ZM30.4668 34.0636L32.9835 27.4551L35.477 34.0636H30.4668Z" fill="#F9F7F8"/>
<path d="M45.1352 29.2887C44.8018 29.2887 44.5316 29.5589 44.5316 29.8923V30.8345C43.8238 30.1521 42.8626 29.7313 41.8045 29.7313C39.635 29.7313 37.8701 31.4973 37.8701 33.6681C37.8701 35.8375 39.6351 37.6025 41.8045 37.6025C42.8626 37.6025 43.8238 37.1818 44.5316 36.4999V37.4415C44.5316 37.7749 44.8018 38.0451 45.1352 38.0451C45.4686 38.0451 45.7388 37.7749 45.7388 37.4415V29.8923C45.7388 29.5589 45.4686 29.2887 45.1352 29.2887ZM41.8044 36.3953C40.3007 36.3953 39.0773 35.1718 39.0773 33.6681C39.0773 32.163 40.3007 30.9385 41.8044 30.9385C43.3082 30.9385 44.5315 32.163 44.5315 33.6681C44.5316 35.1718 43.3082 36.3953 41.8044 36.3953Z" fill="#F9F7F8"/>
<path d="M45.2085 51.0126H29.5401C29.2068 51.0126 28.9365 50.7424 28.9365 50.409C28.9365 50.0757 29.2068 49.8054 29.5401 49.8054H45.2084C45.5418 49.8054 45.812 50.0757 45.812 50.409C45.812 50.7424 45.5418 51.0126 45.2085 51.0126Z" fill="black"/>
<path d="M35.6245 47.8437H29.5401C29.2068 47.8437 28.9365 47.5734 28.9365 47.2401C28.9365 46.9067 29.2068 46.6365 29.5401 46.6365H35.6245C35.9579 46.6365 36.2281 46.9067 36.2281 47.2401C36.2281 47.5734 35.9579 47.8437 35.6245 47.8437Z" fill="#353535"/>
<path d="M45.2085 51.0126H29.5401C29.2068 51.0126 28.9365 50.7424 28.9365 50.409C28.9365 50.0757 29.2068 49.8054 29.5401 49.8054H45.2084C45.5418 49.8054 45.812 50.0757 45.812 50.409C45.812 50.7424 45.5418 51.0126 45.2085 51.0126Z" fill="#353535"/>
<path d="M45.2085 47.8437H39.1241C38.7907 47.8437 38.5205 47.5734 38.5205 47.2401C38.5205 46.9067 38.7907 46.6365 39.1241 46.6365H45.2085C45.5418 46.6365 45.8121 46.9067 45.8121 47.2401C45.8121 47.5734 45.5418 47.8437 45.2085 47.8437Z" fill="#353535"/>
</g>
<defs>
<clipPath id="clip0">
<rect width="40" height="40" fill="white" transform="translate(20 20)"/>
</clipPath>
</defs>
</svg>
