<svg width="35" height="35" viewBox="0 0 35 35" fill="none" xmlns="http://www.w3.org/2000/svg">
<path d="M17.5 0C7.8505 0 0 7.85061 0 17.5001C0 27.1496 7.8505 35 17.5 35C27.1495 35 35 27.1496 35 17.5001C35 7.85061 27.1495 0 17.5 0ZM17.5 31.8182C9.60485 31.8182 3.18182 25.3952 3.18182 17.5001C3.18182 9.60506 9.60485 3.18182 17.5 3.18182C25.3952 3.18182 31.8182 9.60506 31.8182 17.5001C31.8182 25.3952 25.395 31.8182 17.5 31.8182Z" fill="#FFC107"/>
<path d="M17.4997 7.42432C16.3303 7.42432 15.3789 8.37632 15.3789 9.54648C15.3789 10.7156 16.3303 11.6667 17.4997 11.6667C18.6691 11.6667 19.6205 10.7156 19.6205 9.54648C19.6205 8.37632 18.6691 7.42432 17.4997 7.42432Z" fill="#FFC107"/>
<path d="M17.5001 14.8486C16.6215 14.8486 15.9092 15.5609 15.9092 16.4395V25.985C15.9092 26.8636 16.6215 27.5759 17.5001 27.5759C18.3787 27.5759 19.091 26.8636 19.091 25.985V16.4395C19.091 15.5609 18.3787 14.8486 17.5001 14.8486Z" fill="#FFC107"/>
</svg>
