<svg width="100" height="100" viewBox="0 0 100 100" fill="none" xmlns="http://www.w3.org/2000/svg">
<circle cx="50" cy="50" r="50" fill="#454925"/>
<path d="M74.7266 25.3906H50H25.2734C22.3655 25.3906 20 27.7562 20 30.6641V69.3359C20 72.2438 22.3655 74.6094 25.2734 74.6094H50H74.7266C77.6345 74.6094 80 72.2438 80 69.3359V30.6641C80 27.7562 77.6345 25.3906 74.7266 25.3906Z" fill="#F3F5F9"/>
<path d="M74.7266 28.9062H50H25.2734C24.3036 28.9062 23.5156 29.6942 23.5156 30.6641V69.3359C23.5156 70.3058 24.3036 71.0938 25.2734 71.0938H50H74.7266C75.6964 71.0938 76.4844 70.3058 76.4844 69.3359V30.6641C76.4844 29.6942 75.6964 28.9062 74.7266 28.9062Z" fill="#FFC107"/>
<path d="M32.3047 64.0625H28.7891C27.8175 64.0625 27.0312 63.2763 27.0312 62.3047C27.0312 61.3331 27.8175 60.5469 28.7891 60.5469H32.3047C33.2763 60.5469 34.1797 61.3331 34.1797 62.3047C34.1797 63.2763 33.2763 64.0625 32.3047 64.0625Z" fill="#353535"/>
<path d="M71.2109 60.5469H50H39.4531C38.4815 60.5469 37.6953 61.3331 37.6953 62.3047C37.6953 63.2763 38.4815 64.0625 39.4531 64.0625H50H71.2109C72.1825 64.0625 72.9688 63.2763 72.9688 62.3047C72.9688 61.3331 72.1825 60.5469 71.2109 60.5469Z" fill="#353535"/>
<path d="M57.8175 43.1542L50 39.2456L43.755 36.123C43.2107 35.8535 42.5636 35.8792 42.0452 36.2002C41.5268 36.5212 41.2109 37.086 41.2109 37.6954V51.7579C41.2109 52.3673 41.5268 52.9321 42.0452 53.2531C42.5538 53.5694 43.2001 53.6058 43.755 53.3303L50 50.2078L57.8175 46.2991C58.4131 46.0004 58.7891 45.3928 58.7891 44.7267C58.7891 44.0606 58.4131 43.4529 57.8175 43.1542Z" fill="#F3F5F9"/>
<path d="M35.9375 67.5781C33.0296 67.5781 30.5469 65.2126 30.5469 62.3047C30.5469 59.3968 33.0296 57.0312 35.9375 57.0312C38.8454 57.0312 41.2109 59.3968 41.2109 62.3047C41.2109 65.2126 38.8454 67.5781 35.9375 67.5781Z" fill="#F3F5F9"/>
</svg>
