<svg width="30" height="30" viewBox="0 0 30 30" fill="none" xmlns="http://www.w3.org/2000/svg">
<g clip-path="url(#clip0)">
<path d="M23.4375 30H6.5625C5.0125 30 3.75 28.7388 3.75 27.1875V14.0625C3.75 12.5112 5.0125 11.25 6.5625 11.25H23.4375C24.9875 11.25 26.25 12.5112 26.25 14.0625V27.1875C26.25 28.7388 24.9875 30 23.4375 30ZM6.5625 13.125C6.04625 13.125 5.625 13.545 5.625 14.0625V27.1875C5.625 27.705 6.04625 28.125 6.5625 28.125H23.4375C23.9538 28.125 24.375 27.705 24.375 27.1875V14.0625C24.375 13.545 23.9538 13.125 23.4375 13.125H6.5625Z" fill="#ABABAB"/>
<path d="M21.5625 13.125C21.045 13.125 20.625 12.705 20.625 12.1875V7.5C20.625 4.39875 18.1012 1.875 15 1.875C11.8988 1.875 9.375 4.39875 9.375 7.5V12.1875C9.375 12.705 8.955 13.125 8.4375 13.125C7.92 13.125 7.5 12.705 7.5 12.1875V7.5C7.5 3.36375 10.8637 0 15 0C19.1362 0 22.5 3.36375 22.5 7.5V12.1875C22.5 12.705 22.08 13.125 21.5625 13.125Z" fill="#ABABAB"/>
<path d="M15 21.2501C13.6213 21.2501 12.5 20.1288 12.5 18.7501C12.5 17.3713 13.6213 16.2501 15 16.2501C16.3788 16.2501 17.5 17.3713 17.5 18.7501C17.5 20.1288 16.3788 21.2501 15 21.2501ZM15 18.1251C14.6563 18.1251 14.375 18.4051 14.375 18.7501C14.375 19.0951 14.6563 19.3751 15 19.3751C15.3438 19.3751 15.625 19.0951 15.625 18.7501C15.625 18.4051 15.3438 18.1251 15 18.1251Z" fill="#ABABAB"/>
<path d="M15 25C14.4825 25 14.0625 24.58 14.0625 24.0625V20.625C14.0625 20.1075 14.4825 19.6875 15 19.6875C15.5175 19.6875 15.9375 20.1075 15.9375 20.625V24.0625C15.9375 24.58 15.5175 25 15 25Z" fill="#ABABAB"/>
</g>
<defs>
<clipPath id="clip0">
<rect width="30" height="30" fill="white"/>
</clipPath>
</defs>
</svg>
