<svg width="100" height="100" viewBox="0 0 100 100" fill="none" xmlns="http://www.w3.org/2000/svg">
<circle cx="50" cy="50" r="50" fill="#892920"/>
<g clip-path="url(#clip0)">
<path d="M43.7851 33.0894C43.1798 31.1309 41.3668 29.7954 39.3159 29.7954H34.2376C32.1812 29.7954 30.3637 31.1396 29.7623 33.1082L20.197 64.4095C19.7798 65.7696 20.0332 67.2454 20.8811 68.3881C21.7266 69.5305 23.0637 70.205 24.4859 70.205C26.5016 70.205 28.2692 68.8608 28.8085 66.9199L30.775 59.8324H42.3459L44.4638 66.8756C45.0575 68.8521 46.8765 70.205 48.944 70.205C50.4322 70.205 51.8306 69.4981 52.7115 68.3014C53.5943 67.1038 53.8539 65.559 53.4139 64.1393L43.7851 33.0894ZM32.0944 52.9986L34.4896 44.4237C35.1482 42.0854 35.7504 39.0295 36.3516 36.6302H36.466C37.0674 39.0295 37.7912 42.0263 38.5073 44.4237L41.0263 52.9986H32.0944Z" fill="white"/>
<path d="M79.8676 63.8214V55.4746C79.8676 49.8305 77.3127 45.1167 69.3074 45.1167C66.3355 45.1167 63.8638 45.6616 62.0621 46.3034C60.8647 46.7304 60.2059 48.0095 60.5538 49.2318L60.5776 49.3122C60.7603 49.9554 61.2011 50.4952 61.7947 50.8058C62.3866 51.1167 63.0789 51.1716 63.7137 50.9573C65.0257 50.5147 66.5303 50.2219 67.9834 50.2219C71.6669 50.2219 72.3552 52.0391 72.3552 53.3153V53.6603C63.8597 53.6101 58.2632 56.6043 58.2632 62.8401C58.2632 66.6709 61.1596 70.2039 66.0229 70.2039C68.8686 70.2039 71.3208 69.1715 72.8941 67.257H73.039L73.232 68.3072C73.3779 69.0927 74.062 69.6641 74.8623 69.6641H78.3408C78.8032 69.6641 79.2438 69.4722 79.5566 69.134C79.8712 68.7958 80.0305 68.3415 79.995 67.8815C79.9047 66.6995 79.8676 65.2806 79.8676 63.8214ZM72.597 60.9248C72.597 61.3661 72.55 61.8089 72.4498 62.201C71.9597 63.7232 70.4377 64.9503 68.5715 64.9503C66.9038 64.9503 65.6259 64.018 65.6259 62.1037C65.6259 59.207 68.6717 58.2748 72.597 58.3228V60.9248Z" fill="#FFC107"/>
</g>
<defs>
<clipPath id="clip0">
<rect width="60" height="60" fill="white" transform="translate(20 20)"/>
</clipPath>
</defs>
</svg>
