<svg width="100" height="100" viewBox="0 0 100 100" fill="none" xmlns="http://www.w3.org/2000/svg">
<circle cx="50" cy="50" r="50" fill="#454925"/>
<rect x="30" y="20" width="40" height="60" rx="3" fill="#F2F2F2"/>
<rect x="33" y="25" width="34" height="4" rx="2" fill="#353535"/>
<rect x="33" y="33" width="12" height="4" rx="2" fill="#FFC107"/>
<rect x="33" y="43" width="16" height="4" rx="2" fill="#353535"/>
<rect x="51" y="43" width="16" height="4" rx="2" fill="#FFC107"/>
<rect x="33" y="61" width="16" height="4" rx="2" fill="#353535"/>
<rect x="33" y="71" width="20" height="4" rx="2" fill="#353535"/>
<rect x="47" y="33" width="20" height="4" rx="2" fill="#353535"/>
<rect x="55" y="71" width="12" height="4" rx="2" fill="#353535"/>
<rect x="51" y="61" width="16" height="4" rx="2" fill="#FFC107"/>
<rect x="33" y="52" width="34" height="4" rx="2" fill="#353535"/>
</svg>
