<svg width="100" height="100" viewBox="0 0 100 100" fill="none" xmlns="http://www.w3.org/2000/svg">
<path d="M100 50C100 77.6142 77.6142 100 50 100C22.3858 100 0 77.6142 0 50C0 22.3858 22.3858 0 50 0C77.6142 0 100 22.3858 100 50Z" fill="#353535"/>
<g clip-path="url(#clip0)">
<path d="M27.1172 79.8828H73.648V31.9659L61.5644 19.8828H27.1172V79.8828Z" fill="white"/>
<path d="M73.6479 31.9659H61.5644V19.8828" fill="#F2F2F2"/>
<path d="M86.9125 42.3741L76.3314 68.2359L69.9639 74.098L69.5313 65.4541L80.1129 39.5923C80.4146 38.8544 81.2596 38.5 81.9975 38.8017L86.1224 40.4899C86.8604 40.7916 87.2147 41.6362 86.9125 42.3741Z" fill="#FFC107"/>
<path d="M84.0598 39.6458L69.9639 74.098L69.5313 65.4541L80.1129 39.5923C80.4146 38.8544 81.2596 38.5 81.9976 38.8017L84.0598 39.6458Z" fill="#FFC107"/>
<path d="M76.3314 68.2359L69.9639 74.0981L69.93 73.4242L69.5313 65.4541L76.3314 68.2359Z" fill="#353535"/>
<path d="M86.9126 42.3741L84.8632 47.3834L78.0635 44.6011L80.1129 39.5923C80.4146 38.8544 81.2596 38.5 81.9976 38.8017L86.1225 40.4899C86.8604 40.7916 87.2147 41.6362 86.9126 42.3741Z" fill="#892920"/>
<path d="M83.7947 39.5373L81.1983 45.8838L78.0635 44.6011L80.1129 39.5923C80.4146 38.8544 81.2596 38.5 81.9976 38.8017L83.7947 39.5373Z" fill="#892920"/>
<path d="M69.5313 65.4541L72.666 66.7363L69.93 73.4242L69.5313 65.4541Z" fill="#353535"/>
<path d="M56.7615 30.8275H45.3742C44.867 30.8275 44.4554 30.416 44.4554 29.9088C44.4554 29.4016 44.867 28.9905 45.3742 28.9905H56.7615C57.2687 28.9905 57.6798 29.4016 57.6798 29.9088C57.6798 30.416 57.2687 30.8275 56.7615 30.8275Z" fill="#545D68"/>
<path d="M40.5622 49.1325H33.3016C32.7944 49.1325 32.3833 48.7215 32.3833 48.2143V40.9537C32.3833 40.4465 32.7944 40.0354 33.3016 40.0354H40.5622C41.0694 40.0354 41.4804 40.4465 41.4804 40.9537V48.2143C41.4804 48.7215 41.0694 49.1325 40.5622 49.1325ZM34.2203 47.296H39.6439V41.8719H34.2203V47.296Z" fill="#545D68"/>
<path d="M66.5567 43.2983H46.9045C46.3973 43.2983 45.9862 42.8873 45.9862 42.3801C45.9862 41.8729 46.3973 41.4618 46.9045 41.4618H66.5567C67.0639 41.4618 67.475 41.8729 67.475 42.3801C67.475 42.8873 67.0639 43.2983 66.5567 43.2983Z" fill="#545D68"/>
<path d="M62.6996 47.7065H46.9045C46.3973 47.7065 45.9862 47.295 45.9862 46.7878C45.9862 46.2806 46.3973 45.8695 46.9045 45.8695H62.6996C63.2068 45.8695 63.6179 46.2806 63.6179 46.7878C63.6179 47.295 63.2068 47.7065 62.6996 47.7065Z" fill="#545D68"/>
<path d="M37.6384 46.0317C37.3958 46.0317 37.1619 45.9356 36.9893 45.763L35.2352 44.0089C34.8767 43.6504 34.8767 43.0686 35.2352 42.7102C35.594 42.3518 36.1754 42.3518 36.5338 42.7102L37.556 43.7324L41.4067 38.8311C41.7203 38.4324 42.2975 38.3633 42.6963 38.6764C43.095 38.9895 43.1645 39.5672 42.851 39.9659L38.3608 45.6806C38.1983 45.8875 37.9557 46.0143 37.6934 46.0303C37.675 46.0313 37.6567 46.0317 37.6384 46.0317Z" fill="#454925"/>
<path d="M40.5622 61.1932H33.3016C32.7944 61.1932 32.3833 60.7821 32.3833 60.2749V53.0143C32.3833 52.5071 32.7944 52.0961 33.3016 52.0961H40.5622C41.0694 52.0961 41.4804 52.5071 41.4804 53.0143V60.2749C41.4804 60.7821 41.0694 61.1932 40.5622 61.1932ZM34.2203 59.3562H39.6439V53.9326H34.2203V59.3562Z" fill="#545D68"/>
<path d="M66.5567 55.3591H46.9045C46.3973 55.3591 45.9862 54.9476 45.9862 54.4404C45.9862 53.9332 46.3973 53.5221 46.9045 53.5221H66.5567C67.0639 53.5221 67.475 53.9332 67.475 54.4404C67.475 54.9476 67.0639 55.3591 66.5567 55.3591Z" fill="#545D68"/>
<path d="M52.7817 59.7668H46.9045C46.3973 59.7668 45.9862 59.3558 45.9862 58.8486C45.9862 58.3414 46.3973 57.9303 46.9045 57.9303H52.7817C53.2889 57.9303 53.7 58.3414 53.7 58.8486C53.7 59.3558 53.2889 59.7668 52.7817 59.7668Z" fill="#545D68"/>
<path d="M37.6384 58.0923C37.3958 58.0923 37.1619 57.9962 36.9893 57.8232L35.2352 56.0695C34.8767 55.7106 34.8767 55.1292 35.2352 54.7708C35.594 54.4119 36.1754 54.4119 36.5338 54.7708L37.556 55.7925L41.4067 50.8917C41.7203 50.4926 42.2975 50.4234 42.6963 50.737C43.095 51.0501 43.1645 51.6274 42.851 52.0261L38.3608 57.7412C38.1983 57.9477 37.9557 58.0749 37.6934 58.0905C37.675 58.0919 37.6567 58.0923 37.6384 58.0923Z" fill="#454925"/>
<path d="M40.5622 73.2535H33.3016C32.7944 73.2535 32.3833 72.8424 32.3833 72.3352V65.0746C32.3833 64.5674 32.7944 64.1564 33.3016 64.1564H40.5622C41.0694 64.1564 41.4804 64.5674 41.4804 65.0746V72.3352C41.4804 72.8424 41.0694 73.2535 40.5622 73.2535ZM34.2203 71.417H39.6439V65.9934H34.2203V71.417Z" fill="#545D68"/>
<path d="M66.5567 67.4193H46.9045C46.3973 67.4193 45.9862 67.0082 45.9862 66.501C45.9862 65.9938 46.3973 65.5828 46.9045 65.5828H66.5567C67.0639 65.5828 67.475 65.9938 67.475 66.501C67.475 67.0082 67.0639 67.4193 66.5567 67.4193Z" fill="#545D68"/>
<path d="M63.6179 71.8275H46.9045C46.3973 71.8275 45.9862 71.4159 45.9862 70.9087C45.9862 70.4015 46.3973 69.9905 46.9045 69.9905H63.6179C64.1251 69.9905 64.5362 70.4015 64.5362 70.9087C64.5362 71.4159 64.1251 71.8275 63.6179 71.8275Z" fill="#545D68"/>
</g>
<defs>
<clipPath id="clip0">
<rect width="60" height="60" fill="white" transform="translate(27 20)"/>
</clipPath>
</defs>
</svg>
