<svg width="80" height="80" viewBox="0 0 80 80" fill="none" xmlns="http://www.w3.org/2000/svg">
<circle cx="40" cy="40" r="40" fill="#353535"/>
<g clip-path="url(#clip0)">
<path d="M21.6667 20C20.7467 20 20 20.7467 20 21.6667V58.3333C20 59.2533 20.7467 60 21.6667 60H30C30.92 60 31.6667 59.2533 31.6667 58.3333V21.6667C31.6667 20.7467 30.92 20 30 20H21.6667Z" fill="white"/>
<path d="M58.3335 20H50.0002C49.0802 20 48.3335 20.7467 48.3335 21.6667V58.3333C48.3335 59.2533 49.0802 60 50.0002 60H58.3335C59.2535 60 60.0002 59.2533 60.0002 58.3333V21.6667C60.0002 20.7467 59.2535 20 58.3335 20Z" fill="white"/>
<path d="M34.1665 21.6667V58.3333C34.1665 59.2533 34.9132 60 35.8332 60H44.1665C45.0865 60 45.8332 59.2533 45.8332 58.3333V21.6667C45.8332 20.7467 45.0865 20 44.1665 20H35.8332C34.9132 20 34.1665 20.7467 34.1665 21.6667Z" fill="#FFC107"/>
</g>
<defs>
<clipPath id="clip0">
<rect width="40" height="40" fill="white" transform="translate(20 20)"/>
</clipPath>
</defs>
</svg>
