<svg width="80" height="80" viewBox="0 0 80 80" fill="none" xmlns="http://www.w3.org/2000/svg">
<circle cx="40" cy="40" r="40" fill="#454925"/>
<g clip-path="url(#clip0)">
<path d="M50.8665 20.7843V54.051C50.8665 54.4839 50.5151 54.8353 50.0821 54.8353H26.5143C26.0806 54.8353 25.73 54.4839 25.73 54.051V20.7843C25.73 20.3514 26.0806 20 26.5143 20H50.0821C50.5151 20 50.8665 20.3514 50.8665 20.7843Z" fill="#FFC107"/>
<path d="M45.8899 33.0816V59.2157C45.8899 59.6487 45.5385 60 45.1056 60H21.5377C21.104 60 20.7534 59.6487 20.7534 59.2157V25.9483C20.7534 25.5153 21.104 25.164 21.5377 25.164H37.973C38.086 25.164 38.1966 25.1883 38.2977 25.2345C38.3824 25.273 38.4601 25.3271 38.5275 25.3938L45.6601 32.5263C45.7275 32.5938 45.7809 32.6714 45.8193 32.7561C45.8656 32.8573 45.8899 32.9679 45.8899 33.0816Z" fill="white"/>
<path d="M45.8189 32.7561H39.0817C38.6487 32.7561 38.2974 32.4055 38.2974 31.9718V25.2345C38.3821 25.2729 38.4597 25.3271 38.5272 25.3937L45.6597 32.5263C45.7272 32.5937 45.7805 32.6714 45.8189 32.7561Z" fill="#F2F2F2"/>
<path d="M29.6683 35.362H24.861C24.2113 35.362 23.6846 34.8353 23.6846 34.1855C23.6846 33.5358 24.2113 33.0091 24.861 33.0091H29.6683C30.3181 33.0091 30.8448 33.5358 30.8448 34.1855C30.8448 34.8353 30.3181 35.362 29.6683 35.362Z" fill="#353535"/>
<path d="M41.8745 41.2321C41.8745 41.8815 41.3474 42.4085 40.698 42.4085H24.8615C24.2113 42.4085 23.6851 41.8815 23.6851 41.2321C23.6851 40.5819 24.2113 40.0556 24.8615 40.0556H40.698C41.3474 40.0556 41.8745 40.5819 41.8745 41.2321Z" fill="#353535"/>
<path d="M41.8745 46.5758C41.8745 47.226 41.3474 47.7522 40.698 47.7522H24.8615C24.2113 47.7522 23.6851 47.226 23.6851 46.5758C23.6851 45.9264 24.2113 45.3993 24.8615 45.3993H40.698C41.3474 45.3993 41.8745 45.9264 41.8745 46.5758Z" fill="#353535"/>
<path d="M41.8745 51.9201C41.8745 52.5695 41.3474 53.0966 40.698 53.0966H24.8615C24.2113 53.0966 23.6851 52.5695 23.6851 51.9201C23.6851 51.2699 24.2113 50.7436 24.8615 50.7436H40.698C41.3474 50.7436 41.8745 51.2699 41.8745 51.9201Z" fill="#353535"/>
<path d="M59.2468 30.4573V49.2095C59.2468 49.3216 59.2232 49.4322 59.177 49.5342L57.1715 53.946C57.0327 54.2526 56.7456 54.4063 56.4578 54.4063C56.1707 54.4063 55.8829 54.2526 55.7433 53.946L53.7378 49.5342C53.6915 49.4322 53.668 49.3216 53.668 49.2095V30.4573H59.2468Z" fill="white"/>
<path d="M59.2468 27.2722V30.9373H53.668V27.3279C53.668 25.782 54.9189 24.4832 56.4578 24.4824C57.995 24.4824 59.2468 25.7311 59.2468 27.2722Z" fill="#FFC107"/>
</g>
<defs>
<clipPath id="clip0">
<rect width="40" height="40" fill="white" transform="translate(20 20)"/>
</clipPath>
</defs>
</svg>
