<svg width="100" height="100" viewBox="0 0 100 100" fill="none" xmlns="http://www.w3.org/2000/svg">
<path d="M100 50C100 77.6142 77.6142 100 50 100C22.3858 100 0 77.6142 0 50C0 22.3858 22.3858 0 50 0C77.6142 0 100 22.3858 100 50Z" fill="#353535"/>
<g clip-path="url(#clip0)">
<path d="M21.7578 26.7968H78.2422V73.1866H21.7578V26.7968Z" fill="#A8A8A8"/>
<path d="M67.25 73.1819L55.8934 73.1866L21.7578 73.203L42.7168 52.2441C43.7094 51.2515 45.3195 51.2515 46.3133 52.2441L55.8934 61.8241L67.25 73.1819Z" fill="#454925"/>
<path d="M55.8932 61.8246L66.0412 51.6766C66.9274 50.7904 68.3641 50.7904 69.2503 51.6766L78.4422 60.8685L78.2422 73.203H67.2502L55.8932 61.8246Z" fill="#454925"/>
<path d="M65.3641 46.7983C69.4311 46.7983 72.7281 43.5013 72.7281 39.4343C72.7281 35.3672 69.4311 32.0702 65.3641 32.0702C61.297 32.0702 58 35.3672 58 39.4343C58 43.5013 61.297 46.7983 65.3641 46.7983Z" fill="#FFC107"/>
<path d="M78.2422 74.9608H21.7578C20.787 74.9608 20 74.1738 20 73.203V26.797C20 25.8262 20.787 25.0392 21.7578 25.0392H78.2422C79.213 25.0392 80 25.8262 80 26.797V73.203C80 74.1738 79.213 74.9608 78.2422 74.9608ZM23.5156 71.4452H76.4844V28.5548H23.5156V71.4452Z" fill="white"/>
<path d="M49.2524 51.2903C49.2524 57.5256 44.1978 62.5806 37.9622 62.5806C31.7268 62.5806 26.6719 57.5256 26.6719 51.2903C26.6719 45.0549 31.7268 40 37.9622 40C44.1978 40 49.2524 45.0549 49.2524 51.2903Z" fill="white"/>
<path d="M46.0268 51.2903C46.0268 55.7443 42.4162 59.3549 37.9622 59.3549C33.5085 59.3549 29.8976 55.7443 29.8976 51.2903C29.8976 46.8362 33.5085 43.2257 37.9622 43.2257C42.4162 43.2257 46.0268 46.8362 46.0268 51.2903Z" fill="#892920"/>
<path d="M42.801 51.2902C42.801 53.9626 40.6346 56.1288 37.9622 56.1288C35.29 56.1288 33.1236 53.9626 33.1236 51.2902C33.1236 48.6178 35.29 46.4517 37.9622 46.4517C40.6346 46.4517 42.801 48.6178 42.801 51.2902Z" fill="white"/>
</g>
<defs>
<clipPath id="clip0">
<rect width="60" height="60" fill="white" transform="translate(20 20)"/>
</clipPath>
</defs>
</svg>
