<svg width="100" height="100" viewBox="0 0 100 100" fill="none" xmlns="http://www.w3.org/2000/svg">
<circle cx="50" cy="50" r="50" fill="#892920"/>
<rect x="30" y="20" width="40" height="60" rx="3" fill="#F2F2F2"/>
<rect x="34" y="65" width="32" height="12" rx="2" fill="#454925"/>
<rect x="34" y="37" width="32" height="12" rx="2" fill="#454925"/>
<rect x="34" y="51" width="32" height="12" rx="2" fill="#892920"/>
<rect x="34" y="23" width="32" height="12" rx="2" fill="#892920"/>
<path d="M52.2902 31.164H48.7142L48.0662 33H46.6022L49.7222 24.66H51.2942L54.4022 33H52.9382L52.2902 31.164ZM51.9062 30.108L50.5022 26.148L49.0982 30.108H51.9062Z" fill="white"/>
<path d="M51.535 42.632C52.047 42.736 52.459 42.98 52.771 43.364C53.091 43.748 53.251 44.196 53.251 44.708C53.251 45.412 53.015 45.972 52.543 46.388C52.071 46.796 51.387 47 50.491 47H47.119V38.528H50.431C51.279 38.528 51.927 38.72 52.375 39.104C52.831 39.48 53.059 40 53.059 40.664C53.059 41.2 52.919 41.636 52.639 41.972C52.359 42.3 51.991 42.52 51.535 42.632ZM48.487 42.176H50.179C50.659 42.176 51.023 42.064 51.271 41.84C51.527 41.616 51.655 41.304 51.655 40.904C51.655 40.512 51.527 40.204 51.271 39.98C51.023 39.756 50.643 39.644 50.131 39.644H48.487V42.176ZM50.215 45.872C50.735 45.872 51.135 45.756 51.415 45.524C51.703 45.284 51.847 44.952 51.847 44.528C51.847 44.104 51.703 43.772 51.415 43.532C51.127 43.292 50.723 43.172 50.203 43.172H48.487V45.872H50.215Z" fill="white"/>
<path d="M50.0435 52.444C51.0835 52.444 51.9475 52.708 52.6355 53.236C53.3235 53.764 53.7875 54.48 54.0275 55.384H52.5755C52.3755 54.872 52.0555 54.468 51.6155 54.172C51.1835 53.868 50.6515 53.716 50.0195 53.716C49.5155 53.716 49.0635 53.84 48.6635 54.088C48.2715 54.336 47.9595 54.692 47.7275 55.156C47.5035 55.612 47.3915 56.148 47.3915 56.764C47.3915 57.372 47.5035 57.908 47.7275 58.372C47.9595 58.828 48.2715 59.18 48.6635 59.428C49.0635 59.676 49.5155 59.8 50.0195 59.8C50.6515 59.8 51.1835 59.652 51.6155 59.356C52.0555 59.052 52.3755 58.648 52.5755 58.144H54.0275C53.7875 59.048 53.3235 59.764 52.6355 60.292C51.9475 60.812 51.0835 61.072 50.0435 61.072C49.2435 61.072 48.5355 60.892 47.9195 60.532C47.3035 60.164 46.8275 59.656 46.4915 59.008C46.1555 58.352 45.9875 57.604 45.9875 56.764C45.9875 55.924 46.1555 55.18 46.4915 54.532C46.8275 53.876 47.3035 53.364 47.9195 52.996C48.5355 52.628 49.2435 52.444 50.0435 52.444Z" fill="white"/>
<path d="M53.2758 70.752C53.2758 71.608 53.0998 72.356 52.7478 72.996C52.4038 73.628 51.8958 74.12 51.2238 74.472C50.5598 74.824 49.7638 75 48.8358 75H46.0038V66.528H48.8358C49.7638 66.528 50.5598 66.704 51.2238 67.056C51.8958 67.4 52.4038 67.888 52.7478 68.52C53.0998 69.152 53.2758 69.896 53.2758 70.752ZM48.7278 73.764C49.7438 73.764 50.5238 73.5 51.0678 72.972C51.6118 72.444 51.8838 71.704 51.8838 70.752C51.8838 69.8 51.6118 69.06 51.0678 68.532C50.5238 68.004 49.7438 67.74 48.7278 67.74H47.3718V73.764H48.7278Z" fill="white"/>
</svg>
