<svg width="30" height="30" viewBox="0 0 30 30" fill="none" xmlns="http://www.w3.org/2000/svg">
<path d="M26.3036 6.92923H16.8085C16.4231 6.92923 16.0466 6.77097 15.7866 6.50196L12.824 3.38103C12.1118 2.67117 11.1375 2.30039 10.1506 2.30607H3.69632C1.65826 2.30601 0 3.96427 0 6.00228V23.9977C0 26.0358 1.65826 27.694 3.69632 27.694H26.3172H26.3206C28.3576 27.685 30.009 26.0189 29.9999 23.9864V10.6255C29.9999 8.58743 28.3417 6.92923 26.3036 6.92923ZM27.7392 23.991C27.7426 24.7822 27.1017 25.4299 26.315 25.4333H3.69632C2.90507 25.4333 2.26078 24.789 2.26078 23.9978V6.00228C2.26078 5.21103 2.90507 4.56673 3.69632 4.56556H10.1801C10.1925 4.56556 10.2049 4.56556 10.2174 4.56556C10.5949 4.56556 10.9612 4.71591 11.2076 4.96007L14.1544 8.06629C14.8462 8.78067 15.8138 9.18989 16.8085 9.18989H26.3036C27.0949 9.18989 27.7392 9.83418 27.7392 10.6254V23.991H27.7392Z" fill="#ABABAB"/>
</svg>
