<svg width="80" height="80" viewBox="0 0 80 80" fill="none" xmlns="http://www.w3.org/2000/svg">
<circle cx="40" cy="40" r="40" fill="#892920"/>
<g clip-path="url(#clip0)">
<path d="M31.2072 60C37.3968 60 42.4145 54.9823 42.4145 48.7928C42.4145 42.6032 37.3968 37.5855 31.2072 37.5855C25.0177 37.5855 20 42.6032 20 48.7928C20 54.9823 25.0177 60 31.2072 60Z" fill="white"/>
<path d="M36.7419 39.0462C37.6714 40.6791 38.2026 42.5681 38.2026 44.5814C38.2026 50.771 33.185 55.7886 26.9954 55.7886C24.9821 55.7886 23.0931 55.2574 21.4602 54.3279C21.6635 54.6853 21.887 55.0295 22.1272 55.3608L20.071 59.1582C19.8019 59.6551 20.3442 60.1975 20.8412 59.9285L24.6379 57.8725C26.4838 59.2104 28.7527 59.9999 31.2068 59.9999C37.3964 59.9999 42.414 54.9823 42.414 48.7927C42.414 44.6164 40.1294 40.9741 36.7419 39.0462Z" fill="white"/>
<path d="M35.22 52.8285L34.7936 52.4021C35.2875 51.6038 35.5736 50.6638 35.5736 49.658C35.5736 46.7734 33.2268 44.4266 30.3422 44.4266C27.4576 44.4266 25.1108 46.7734 25.1108 49.658C25.1108 52.5426 27.4576 54.8894 30.3422 54.8894C31.348 54.8894 32.2881 54.6034 33.0864 54.1094L33.5127 54.5357C33.7484 54.7714 34.0574 54.8894 34.3663 54.8894C34.6752 54.8894 34.9843 54.7716 35.2199 54.5357C35.6915 54.0642 35.6915 53.2999 35.22 52.8285ZM30.3422 52.4748C28.789 52.4748 27.5254 51.2111 27.5254 49.6579C27.5254 48.1047 28.789 46.841 30.3422 46.841C31.8954 46.841 33.1591 48.1047 33.1591 49.6579C33.1591 49.9896 33.1011 50.3079 32.9953 50.6037L32.8055 50.4139C32.3341 49.9424 31.5697 49.9424 31.0982 50.4139C30.6268 50.8854 30.6268 51.6497 31.0982 52.1212L31.288 52.311C30.9922 52.4168 30.674 52.4748 30.3422 52.4748Z" fill="#353535"/>
<path d="M45.9758 48.0482C53.7211 48.0482 59.9999 41.7694 59.9999 34.0241C59.9999 26.2788 53.7211 20 45.9758 20C38.2305 20 31.9517 26.2788 31.9517 34.0241C31.9517 41.7694 38.2305 48.0482 45.9758 48.0482Z" fill="#FFC107"/>
<path d="M57.3381 42.2446C59.0122 39.9347 59.9999 37.095 59.9999 34.0241C59.9999 29.0738 57.4348 24.7228 53.5616 22.227C54.9707 24.4139 55.7886 27.0178 55.7886 29.8128C55.7886 37.5582 49.5098 43.8369 41.7645 43.8369C38.9695 43.8369 36.3657 43.019 34.1787 41.6099C36.6745 45.4832 41.0255 48.0482 45.9758 48.0482C49.0467 48.0482 51.8863 47.0605 54.1963 45.3864L58.9467 47.9589C59.5685 48.2955 60.2473 47.6168 59.9105 46.995L57.3381 42.2446Z" fill="#FFC107"/>
<path d="M52.3983 39.5761L47.5693 26.6988C47.3927 26.2276 46.9422 25.9155 46.4389 25.9155C45.9356 25.9155 45.4852 26.2276 45.3085 26.6988L40.4796 39.5761C40.2454 40.2003 40.5617 40.8962 41.186 41.1304C41.8102 41.3645 42.5061 41.0482 42.7403 40.4239L42.9748 39.7988H49.9031L50.1376 40.4239C50.3193 40.9086 50.7794 41.2076 51.2681 41.2075C51.409 41.2075 51.5522 41.1827 51.6919 41.1304C52.316 40.8962 52.6324 40.2004 52.3983 39.5761ZM43.8802 37.3843L46.439 30.5609L48.9978 37.3843H43.8802Z" fill="#353535"/>
</g>
<defs>
<clipPath id="clip0">
<rect width="40" height="40" fill="white" transform="translate(20 20)"/>
</clipPath>
</defs>
</svg>
