<svg width="100" height="100" viewBox="0 0 100 100" fill="none" xmlns="http://www.w3.org/2000/svg">
<circle cx="50" cy="50" r="50" fill="#892920"/>
<path d="M49.9999 34.2319C42.1032 34.2345 36.2506 39.5555 34.6619 46.0551C33.3058 51.5997 34.8885 57.2594 38.8933 61.1956C40.3662 62.6428 41.2108 64.8022 41.2108 67.1197V69.3358L44.3193 72.9686H49.9999H55.1992L58.7889 69.3358V67.1248C58.7889 64.8331 59.6748 62.6307 61.2214 61.0824C64.1876 58.1091 65.8202 54.1729 65.8202 49.9999C65.8202 41.4917 59.1071 34.2296 49.9999 34.2319Z" fill="#FFC107"/>
<path d="M25.3906 51.7578H21.7578C20.7862 51.7578 20 50.9716 20 50C20 49.0284 20.7862 48.2422 21.7578 48.2422H25.3906C26.3622 48.2422 27.1484 49.0284 27.1484 50C27.1484 50.9716 26.3622 51.7578 25.3906 51.7578Z" fill="#FFC107"/>
<path d="M78.2422 51.7578H74.6094C73.6378 51.7578 72.8516 50.9716 72.8516 50C72.8516 49.0284 73.6378 48.2422 74.6094 48.2422H78.2422C79.2138 48.2422 80 49.0284 80 50C80 50.9716 79.2138 51.7578 78.2422 51.7578Z" fill="#FFC107"/>
<path d="M24.1203 64.9413C23.6344 64.1001 23.9228 63.0255 24.764 62.5397L27.8092 60.7819C28.6469 60.296 29.7233 60.5844 30.2108 61.4256C30.6966 62.2668 30.4082 63.3414 29.567 63.8272L26.5218 65.585C25.69 66.0654 24.6115 65.7893 24.1203 64.9413Z" fill="#FFC107"/>
<path d="M69.7892 38.5743C69.3034 37.7331 69.5918 36.6585 70.4329 36.1728L73.4782 34.415C74.3142 33.9275 75.394 34.2175 75.8797 35.0587C76.3654 35.8998 76.0772 36.9745 75.236 37.4602L72.1908 39.218C71.359 39.6985 70.2805 39.4224 69.7892 38.5743Z" fill="#FFC107"/>
<path d="M61.4256 30.211C60.5844 29.7251 60.2961 28.6507 60.7819 27.8095L62.5397 24.7642C63.0256 23.9231 64.1001 23.6347 64.9412 24.1205C65.7824 24.6064 66.0708 25.6809 65.585 26.5221L63.8271 29.5673C63.3367 30.414 62.2587 30.6922 61.4256 30.211Z" fill="#FFC107"/>
<path d="M36.1725 29.5673L34.4147 26.5221C33.9289 25.6809 34.2173 24.6063 35.0584 24.1205C35.8927 23.6347 36.9725 23.9231 37.46 24.7642L39.2178 27.8095C39.7036 28.6507 39.4152 29.7253 38.5741 30.211C37.7423 30.6915 36.6638 30.4153 36.1725 29.5673Z" fill="#FFC107"/>
<path d="M73.4782 65.5849L70.4329 63.8271C69.5918 63.3413 69.3034 62.2668 69.7892 61.4256C70.2751 60.5844 71.3513 60.2961 72.1908 60.7819L75.236 62.5397C76.0772 63.0256 76.3656 64.1001 75.8797 64.9412C75.3892 65.788 74.3111 66.0661 73.4782 65.5849Z" fill="#FFC107"/>
<path d="M27.8092 39.218L24.764 37.4602C23.9228 36.9743 23.6344 35.8998 24.1203 35.0587C24.6061 34.2175 25.6824 33.9275 26.5218 34.415L29.567 36.1728C30.4082 36.6586 30.6966 37.7331 30.2108 38.5743C29.7199 39.4218 28.6416 39.6988 27.8092 39.218Z" fill="#FFC107"/>
<path d="M50 69.3359H41.2109V70.5839C41.2109 75.7989 45.0716 80 50 80C54.8461 80 58.7891 75.9398 58.7891 71.0938V69.3359H50Z" fill="white"/>
<path d="M50 20C49.0284 20 48.2422 20.7862 48.2422 21.7578V25.3906C48.2422 26.3622 49.0284 27.1484 50 27.1484C50.9716 27.1484 51.7578 26.3622 51.7578 25.3906V21.7578C51.7578 20.7862 50.9716 20 50 20Z" fill="#FFC107"/>
<path d="M50 42.9688C47.0921 42.9688 44.7266 45.3343 44.7266 48.2422C44.7266 49.2138 45.5128 50 46.4844 50C47.456 50 48.2422 49.2138 48.2422 48.2422C48.2422 47.2723 49.0302 46.4844 50 46.4844C50.9698 46.4844 51.7578 47.2723 51.7578 48.2422C51.7578 48.9666 51.3235 49.6086 50.6489 49.8764C50.41 49.9714 50.2094 50.1195 50 50.2555C48.9275 50.9521 48.2422 52.1238 48.2422 53.5155C48.2422 54.4871 49.0284 55.2733 50 55.2733C50.9716 55.2733 51.7578 54.4871 51.7578 53.5155L51.9484 53.143C53.9688 52.3398 55.2734 50.4154 55.2734 48.2422C55.2734 45.3343 52.9079 42.9688 50 42.9688Z" fill="#353535"/>
<path d="M50 62.3047C50.9708 62.3047 51.7578 61.5177 51.7578 60.5469C51.7578 59.5761 50.9708 58.7891 50 58.7891C49.0292 58.7891 48.2422 59.5761 48.2422 60.5469C48.2422 61.5177 49.0292 62.3047 50 62.3047Z" fill="#353535"/>
</svg>
