<svg width="100" height="100" viewBox="0 0 100 100" fill="none" xmlns="http://www.w3.org/2000/svg">
<circle cx="50" cy="50" r="50" fill="#892920"/>
<path d="M52.9032 36.1635H23.8709C21.7331 36.1635 20 37.8965 20 40.0344V59.3892C20 61.527 21.7331 63.2601 23.8709 63.2601H25.8064C25.8064 63.2601 25.8064 67.7437 25.8064 70.6073C25.8064 71.4695 26.844 71.9 27.4536 71.2904C30.2162 68.5278 35.4837 63.2603 35.4835 63.2603H52.9032C55.041 63.2603 56.7741 61.5272 56.7741 59.3893V40.0344C56.7741 37.8965 55.0412 36.1635 52.9032 36.1635Z" fill="white"/>
<path d="M76.1291 28.4214H47.0968C44.9589 28.4214 43.2259 30.1545 43.2259 32.2923V51.6471C43.2259 53.785 44.9589 55.5181 47.0968 55.5181H64.5161L72.5415 63.5434C73.1511 64.153 74.1935 63.7213 74.1935 62.8592V55.5181H76.1289C78.2668 55.5181 79.9999 53.785 79.9999 51.6471V32.2924C80 30.1545 78.2669 28.4214 76.1291 28.4214Z" fill="#FFC107"/>
<path d="M61.6129 47.0504C60.9447 47.0504 60.4032 46.5089 60.4032 45.8407V45.5515C60.4032 44.1566 61.3095 42.9478 62.6572 42.5434C64.1797 42.0874 65.2419 40.6575 65.2419 39.0671C65.2419 37.1335 63.5464 35.4375 61.6128 35.4375C60.4598 35.4375 59.4014 35.9667 58.7087 36.8901C58.3071 37.4244 57.551 37.5332 57.0141 37.131C56.4802 36.7299 56.3724 35.9719 56.7732 35.4374C57.9111 33.9225 59.7199 33.0181 61.6128 33.0181C64.8913 33.0181 67.6612 35.788 67.6612 39.0669C67.6612 41.7178 65.8892 44.1004 63.3527 44.8607C63.0351 44.9556 62.8225 45.2335 62.8225 45.5515V45.8407C62.8225 46.5089 62.281 47.0504 61.6129 47.0504Z" fill="white"/>
<path d="M61.6129 50.9214C60.9447 50.9214 60.3985 50.3799 60.3985 49.7117C60.3985 49.0435 60.9353 48.502 61.6034 48.502H61.6129C62.2811 48.502 62.8227 49.0435 62.8227 49.7117C62.8225 50.3799 62.281 50.9214 61.6129 50.9214Z" fill="white"/>
<path d="M38.3871 54.7924C37.7189 54.7924 37.1773 54.2509 37.1773 53.5827V41.9697C37.1773 41.3015 37.7189 40.76 38.3871 40.76C39.0553 40.76 39.5968 41.3015 39.5968 41.9697V53.5827C39.5968 54.2509 39.0553 54.7924 38.3871 54.7924Z" fill="#454925"/>
<path d="M38.3966 58.6635C37.7284 58.6635 37.1821 58.122 37.1821 57.4537C37.1821 56.7855 37.719 56.244 38.3871 56.244H38.3966C39.0648 56.244 39.6063 56.7855 39.6063 57.4537C39.6062 58.122 39.0646 58.6635 38.3966 58.6635Z" fill="#454925"/>
</svg>
