<svg width="80" height="80" viewBox="0 0 80 80" fill="none" xmlns="http://www.w3.org/2000/svg">
<circle cx="40" cy="40" r="40" fill="#892920"/>
<path d="M38.4377 58.8858H23.9819C23.119 58.8858 22.4194 58.1862 22.4194 57.3233V34.8995C22.4194 34.4681 22.7693 34.1183 23.2007 34.1183H38.4377C39.3007 34.1183 40.0002 34.8178 40.0002 35.6808V57.3233C40.0002 58.1861 39.3007 58.8858 38.4377 58.8858Z" fill="#353535"/>
<path d="M56.0184 58.8858H41.5625C40.6995 58.8858 40 58.1862 40 57.3233V35.6808C40 34.8178 40.6995 34.1183 41.5625 34.1183H56.0184C56.8814 34.1183 57.5809 34.8178 57.5809 35.6808V57.3233C57.5809 58.1861 56.8813 58.8858 56.0184 58.8858Z" fill="#353535"/>
<path d="M38.4377 57.4336H23.9819C23.119 57.4336 22.4194 56.734 22.4194 55.8711V34.2286C22.4194 33.3656 23.119 32.6661 23.9819 32.6661H38.4377C39.3007 32.6661 40.0002 33.3656 40.0002 34.2286V55.8711C40.0002 56.7339 39.3007 57.4336 38.4377 57.4336Z" fill="#353535"/>
<path d="M56.0184 57.4336H41.5625C40.6995 57.4336 40 56.734 40 55.8711V34.2286C40 33.3656 40.6995 32.6661 41.5625 32.6661H56.0184C56.8814 32.6661 57.5809 33.3656 57.5809 34.2286V55.8711C57.5809 56.7339 56.8813 57.4336 56.0184 57.4336Z" fill="#353535"/>
<path d="M38.4378 55.6495H25.3276C24.4647 55.6495 23.7651 54.95 23.7651 54.087V32.8536C23.7651 31.9906 24.4647 31.2911 25.3276 31.2911H38.4378C39.3008 31.2911 40.0003 31.9906 40.0003 32.8536V54.087C40.0003 54.9498 39.3008 55.6495 38.4378 55.6495Z" fill="#F1F2F2"/>
<path d="M24.7026 45.7497C24.5301 45.7497 24.3901 45.6097 24.3901 45.4372V35.4372C24.3901 35.2647 24.5301 35.1247 24.7026 35.1247C24.8751 35.1247 25.0151 35.2647 25.0151 35.4372V45.4372C25.0151 45.6098 24.8753 45.7497 24.7026 45.7497ZM24.7026 34.4997C24.5301 34.4997 24.3901 34.3597 24.3901 34.1872V34.1351C24.3901 33.9626 24.5301 33.8226 24.7026 33.8226C24.8751 33.8226 25.0151 33.9626 25.0151 34.1351V34.1872C25.0151 34.3598 24.8753 34.4997 24.7026 34.4997Z" fill="white"/>
<path d="M38.4378 31.2911V52.5245C38.4378 53.3875 37.7383 54.087 36.8753 54.087H23.7651C23.7651 54.95 24.4647 55.6495 25.3276 55.6495H38.4378C39.3008 55.6495 40.0003 54.95 40.0003 54.087V32.8536C40.0003 31.9906 39.3008 31.2911 38.4378 31.2911Z" fill="#E6E7E8"/>
<path d="M39.0801 31.4301C39.1687 31.6262 39.2191 31.8431 39.2191 32.0723V53.3058C39.2191 54.1687 38.5196 54.8683 37.6566 54.8683H24.5465C24.3174 54.8683 24.1004 54.8178 23.9043 54.7292C24.1495 55.2716 24.6938 55.6495 25.3277 55.6495H38.4379C39.3009 55.6495 40.0004 54.95 40.0004 54.087V32.8536C40.0004 32.2197 39.6223 31.6753 39.0801 31.4301Z" fill="#D1D3D4"/>
<path d="M54.6727 55.6495H41.5625C40.6995 55.6495 40 54.95 40 54.087V32.8536C40 31.9906 40.6995 31.2911 41.5625 31.2911H54.6727C55.5356 31.2911 56.2352 31.9906 56.2352 32.8536V54.087C56.2352 54.9498 55.5355 55.6495 54.6727 55.6495Z" fill="#E6E7E8"/>
<path d="M54.6727 55.6495H41.5625C40.6995 55.6495 40 54.95 40 54.087V32.8536C40 31.9906 40.6995 31.2911 41.5625 31.2911H54.6727C55.5356 31.2911 56.2352 31.9906 56.2352 32.8536V54.087C56.2352 54.9498 55.5355 55.6495 54.6727 55.6495Z" fill="#E6E7E8"/>
<path d="M53.296 35.1325H48.6528C48.4803 35.1325 48.3403 34.9925 48.3403 34.82C48.3403 34.6475 48.4803 34.5075 48.6528 34.5075H53.296C53.4685 34.5075 53.6085 34.6475 53.6085 34.82C53.6085 34.9925 53.4685 35.1325 53.296 35.1325Z" fill="#939598"/>
<path d="M53.296 39.2979H44.7466C44.5741 39.2979 44.4341 39.1579 44.4341 38.9854C44.4341 38.8129 44.5741 38.6729 44.7466 38.6729H53.296C53.4685 38.6729 53.6085 38.8129 53.6085 38.9854C53.6085 39.1579 53.4685 39.2979 53.296 39.2979Z" fill="#939598"/>
<path d="M53.296 43.4636H43.1841C43.0116 43.4636 42.8716 43.3236 42.8716 43.1511C42.8716 42.9786 43.0116 42.8386 43.1841 42.8386H53.296C53.4685 42.8386 53.6085 42.9786 53.6085 43.1511C53.6085 43.3236 53.4685 43.4636 53.296 43.4636Z" fill="#939598"/>
<path d="M53.296 47.6292H43.1841C43.0116 47.6292 42.8716 47.4892 42.8716 47.3167C42.8716 47.1442 43.0116 47.0042 43.1841 47.0042H53.296C53.4685 47.0042 53.6085 47.1442 53.6085 47.3167C53.6085 47.4892 53.4685 47.6292 53.296 47.6292Z" fill="#939598"/>
<path d="M53.296 51.7948H43.1841C43.0116 51.7948 42.8716 51.6548 42.8716 51.4823C42.8716 51.3098 43.0116 51.1698 43.1841 51.1698H53.296C53.4685 51.1698 53.6085 51.3098 53.6085 51.4823C53.6085 51.6548 53.4685 51.7948 53.296 51.7948Z" fill="#939598"/>
<path d="M31.3477 35.1325H26.7046C26.5321 35.1325 26.3921 34.9925 26.3921 34.82C26.3921 34.6475 26.5321 34.5075 26.7046 34.5075H31.3477C31.5202 34.5075 31.6602 34.6475 31.6602 34.82C31.6602 34.9925 31.5202 35.1325 31.3477 35.1325Z" fill="#939598"/>
<path d="M35.254 39.2979H26.7046C26.5321 39.2979 26.3921 39.1579 26.3921 38.9854C26.3921 38.8129 26.5321 38.6729 26.7046 38.6729H35.254C35.4265 38.6729 35.5665 38.8129 35.5665 38.9854C35.5665 39.1579 35.4265 39.2979 35.254 39.2979Z" fill="#939598"/>
<path d="M36.8165 43.4636H26.7046C26.5321 43.4636 26.3921 43.3236 26.3921 43.1511C26.3921 42.9786 26.5321 42.8386 26.7046 42.8386H36.8165C36.989 42.8386 37.129 42.9786 37.129 43.1511C37.129 43.3236 36.989 43.4636 36.8165 43.4636Z" fill="#939598"/>
<path d="M36.8165 47.6292H26.7046C26.5321 47.6292 26.3921 47.4892 26.3921 47.3167C26.3921 47.1442 26.5321 47.0042 26.7046 47.0042H36.8165C36.989 47.0042 37.129 47.1442 37.129 47.3167C37.129 47.4892 36.989 47.6292 36.8165 47.6292Z" fill="#939598"/>
<path d="M36.8165 51.7948H26.7046C26.5321 51.7948 26.3921 51.6548 26.3921 51.4823C26.3921 51.3098 26.5321 51.1698 26.7046 51.1698H36.8165C36.989 51.1698 37.129 51.3098 37.129 51.4823C37.129 51.6548 36.989 51.7948 36.8165 51.7948Z" fill="#939598"/>
<path d="M48.5938 29.7079C48.5938 24.9617 44.7463 21.1142 40 21.1142C35.2538 21.1142 31.4062 24.9617 31.4062 29.7079C31.4062 33.6181 34.0186 36.9159 37.5925 37.9573L39.7427 41.0806C39.8669 41.2611 40.1333 41.2611 40.2575 41.0806L42.4077 37.9573C45.9814 36.9161 48.5938 33.6181 48.5938 29.7079Z" fill="#FFC107"/>
<path d="M45.6721 23.2547C47.0036 24.7683 47.8126 26.7525 47.8126 28.9267C47.8126 32.8369 45.2003 36.1347 41.6264 37.1761L39.4762 40.2994C39.4298 40.3669 39.3634 40.409 39.292 40.4261L39.7426 41.0806C39.8668 41.2611 40.1332 41.2611 40.2575 41.0806L42.4076 37.9573C45.9815 36.9161 48.5939 33.6181 48.5939 29.7079C48.5939 27.1361 47.4626 24.8297 45.6721 23.2547Z" fill="#FFC107"/>
<path d="M40.6069 28.0493V31.3667C41.523 31.3667 42.2655 30.624 42.2655 29.7081C42.2655 28.792 41.5229 28.0493 40.6069 28.0493Z" fill="#353535"/>
<path d="M36.3891 32.3572H34.9219C34.0589 32.3572 33.3594 31.6576 33.3594 30.7947V28.6212C33.3594 27.7583 34.0589 27.0587 34.9219 27.0587H36.3891V32.3572Z" fill="#353535"/>
<path d="M35.6079 27.0587V31.2634C35.6079 31.4361 35.4681 31.5759 35.2954 31.5759H34.1407C33.9117 31.5759 33.6946 31.5255 33.4985 31.4369C33.7437 31.9792 34.2881 32.3572 34.922 32.3572H36.3892V27.0587H35.6079Z" fill="#353535"/>
<path d="M36.3892 32.3572L39.5593 34.4581C40.0081 34.7555 40.6071 34.4337 40.6071 33.8955V25.5205C40.6071 24.9822 40.0079 24.6605 39.5593 24.9578L36.3892 27.0589V32.3572Z" fill="#353535"/>
<path d="M40.0292 24.853C40.0335 24.8842 40.0359 24.9162 40.0359 24.9492V33.3244C40.0359 33.8627 39.4367 34.1844 38.9881 33.887L36.3892 32.1645V32.3572L39.5593 34.4581C40.0081 34.7555 40.6071 34.4337 40.6071 33.8955V25.5205C40.6071 25.1612 40.3399 24.8997 40.0292 24.853Z" fill="#353535"/>
<path d="M42.7554 30.6335C42.7554 30.5321 42.7951 30.4309 42.8741 30.3551C43.0321 30.2037 43.1265 29.9617 43.1265 29.7079C43.1265 29.4542 43.0321 29.2121 42.8741 29.0607C42.7204 28.9134 42.7152 28.6693 42.8627 28.5156C43.0101 28.3618 43.2541 28.3567 43.4079 28.5042C43.7191 28.8026 43.8977 29.2414 43.8977 29.7081C43.8977 30.1748 43.7191 30.6135 43.4079 30.912C43.2541 31.0593 43.0101 31.0542 42.8627 30.9006C42.791 30.8256 42.7554 30.7295 42.7554 30.6335Z" fill="#353535"/>
<path d="M43.8174 31.5086C43.8174 31.4116 43.8538 31.3145 43.9268 31.2395C44.2965 30.8601 44.5085 30.3019 44.5085 29.7081C44.5085 29.1142 44.2965 28.5561 43.9268 28.1767C43.7782 28.0242 43.7813 27.78 43.9338 27.6314C44.0863 27.4828 44.3306 27.4859 44.4792 27.6384C44.9879 28.1606 45.2796 28.915 45.2796 29.7081C45.2796 30.5012 44.9879 31.2556 44.4792 31.7778C44.3306 31.9303 44.0863 31.9336 43.9338 31.7848C43.8565 31.7092 43.8174 31.6089 43.8174 31.5086Z" fill="#353535"/>
<path d="M44.8784 32.3828C44.8784 32.2872 44.9137 32.1915 44.9848 32.1169C45.5601 31.5129 45.8901 30.6348 45.8901 29.7079C45.8901 28.7811 45.5601 27.9029 44.9848 27.299C44.8379 27.1448 44.8439 26.9008 44.9981 26.7539C45.1523 26.607 45.3964 26.6129 45.5433 26.7672C46.2539 27.5131 46.6614 28.585 46.6614 29.7079C46.6614 30.8309 46.2539 31.9028 45.5433 32.6487C45.3964 32.8029 45.1523 32.8089 44.9981 32.662C44.9186 32.5862 44.8784 32.4847 44.8784 32.3828Z" fill="#353535"/>
</svg>
