<svg width="100" height="100" viewBox="0 0 100 100" fill="none" xmlns="http://www.w3.org/2000/svg">
<circle cx="50" cy="50" r="50" fill="#FFC107"/>
<g clip-path="url(#clip0)">
<path d="M40.636 57.5045C49.9523 57.5045 57.5045 49.9523 57.5045 40.636C57.5045 31.3198 49.9523 23.7676 40.636 23.7676C31.3198 23.7676 23.7676 31.3198 23.7676 40.636C23.7676 49.9523 31.3198 57.5045 40.636 57.5045Z" fill="#C7EAFB"/>
<path d="M27.5143 41.576C26.997 41.576 26.5771 41.1561 26.5771 40.6388C26.5771 32.8756 32.871 26.5818 40.6342 26.5818C41.1515 26.5818 41.5713 27.0017 41.5713 27.5189C41.5713 28.0362 41.1515 28.4561 40.6342 28.4561C33.9056 28.4561 28.4514 33.9103 28.4514 40.6388C28.4514 41.1561 28.0315 41.576 27.5143 41.576Z" fill="white"/>
<path d="M79.4315 71.7237C80.1831 72.4772 80.1831 73.6973 79.4315 74.4507L74.4459 79.4363C73.6924 80.1879 72.4723 80.1879 71.7189 79.4363L58.0647 65.7822C57.3131 65.0287 57.3131 63.8085 58.0647 63.0552L63.0503 58.0696C63.8038 57.318 65.0239 57.318 65.7773 58.0696L79.4315 71.7237Z" fill="#892920"/>
<path d="M61.8788 59.2316L58.1302 55.4831C57.2212 54.5291 57.0965 53.0728 57.8303 51.9782C64.1035 42.4755 61.4851 29.6864 51.9826 23.4132C42.4801 17.14 29.6909 19.7585 23.4177 29.261C17.1445 38.7635 19.7628 51.5528 29.2654 57.826C36.1543 62.3739 45.0927 62.3739 51.9825 57.826C53.077 57.0922 54.5334 57.2168 55.4874 58.1259L59.236 61.8744L61.8788 59.2316ZM40.6338 57.5074C31.3178 57.5074 23.7654 49.9549 23.7654 40.6389C23.7654 31.3228 31.3178 23.7704 40.6338 23.7704C49.9499 23.7704 57.5023 31.3228 57.5023 40.6389C57.5023 49.9549 49.9499 57.5074 40.6338 57.5074Z" fill="#353535"/>
</g>
<defs>
<clipPath id="clip0">
<rect width="60" height="60" fill="white" transform="translate(20 20)"/>
</clipPath>
</defs>
</svg>
