<svg width="100" height="100" viewBox="0 0 100 100" fill="none" xmlns="http://www.w3.org/2000/svg">
<circle cx="50" cy="50" r="50" fill="#892920"/>
<path d="M59.75 80H29.75C27.6782 80 26 78.3218 26 76.25V23.75C26 21.6782 27.6782 20 29.75 20H59.75C61.8218 20 63.5 21.6782 63.5 23.75V76.25C63.5 78.3218 61.8218 80 59.75 80Z" fill="white"/>
<path d="M82.2651 34.3454L60.6651 55.9266L59.7088 56.1706L49.8087 46.2724L50.0523 45.3349L71.6523 23.7349L82.2651 34.3454Z" fill="#FFC107"/>
<path d="M50.0619 45.3295L46.5275 59.4726L60.6706 55.9363L61.0381 55.5706L50.4295 44.9619L50.0619 45.3295Z" fill="#FFC107"/>
<path d="M84.9014 26.4014L79.5986 21.0987C78.1342 19.6343 75.7607 19.6343 74.2964 21.0987L70.3193 25.0757L80.9261 35.6825L84.9032 31.7055C86.3658 30.2393 86.3658 27.8658 84.9014 26.4014Z" fill="white"/>
<path d="M53.7689 57.669L46.5312 59.4689L48.3311 52.2312L53.7689 57.669Z" fill="#353535"/>
<path d="M52.25 35H33.5C32.465 35 31.625 34.16 31.625 33.125C31.625 32.09 32.465 31.25 33.5 31.25H52.25C53.285 31.25 54.125 32.09 54.125 33.125C54.125 34.16 53.285 35 52.25 35Z" fill="#444444"/>
<path d="M44.75 42.5H33.5C32.465 42.5 31.625 41.66 31.625 40.625C31.625 39.59 32.465 38.75 33.5 38.75H44.75C45.785 38.75 46.625 39.59 46.625 40.625C46.625 41.66 45.785 42.5 44.75 42.5Z" fill="#444444"/>
<path d="M41 50H33.5C32.465 50 31.625 49.16 31.625 48.125C31.625 47.09 32.465 46.25 33.5 46.25H41C42.035 46.25 42.875 47.09 42.875 48.125C42.875 49.16 42.035 50 41 50Z" fill="#444444"/>
<path d="M37.25 57.5H33.5C32.465 57.5 31.625 56.66 31.625 55.625C31.625 54.59 32.465 53.75 33.5 53.75H37.25C38.285 53.75 39.125 54.59 39.125 55.625C39.125 56.66 38.285 57.5 37.25 57.5Z" fill="#444444"/>
</svg>
