<svg width="100" height="100" viewBox="0 0 100 100" fill="none" xmlns="http://www.w3.org/2000/svg">
<path d="M100 50C100 77.6142 77.6142 100 50 100C22.3858 100 0 77.6142 0 50C0 22.3858 22.3858 0 50 0C77.6142 0 100 22.3858 100 50Z" fill="#353535"/>
<g clip-path="url(#clip0)">
<path d="M62.8886 63.6242L41.1326 72.4253L40.9061 72.5172C38.2818 73.6059 35.2719 72.3629 34.1832 69.7374L21.3948 38.9354C20.3049 36.3111 21.5491 33.3012 24.1734 32.2125L43.6994 24.1057C46.3248 23.0159 49.3349 24.2601 50.4236 26.8831L51.9702 30.1992L61.0518 49.6639L62.8886 63.6242Z" fill="#FFC107"/>
<path d="M62.8888 63.6241L41.1328 72.4252L40.2707 72.1656C37.5509 71.3452 36.0103 68.476 36.8309 65.7549L46.4634 33.8251C47.1933 31.4053 49.5445 29.9187 51.9704 30.1991L61.052 49.6638L62.8888 63.6241Z" fill="#E2A91B"/>
<path d="M80.7799 40.6977L71.1473 72.6287C70.3269 75.3485 67.4564 76.889 64.7366 76.0685L47.8544 70.9754L44.4954 69.9615C41.7744 69.1411 40.235 66.2719 41.0556 63.5508L50.6881 31.621C51.5086 28.9012 54.3778 27.3607 57.0976 28.1812L77.3399 34.2882C77.5249 34.3446 77.7049 34.4095 77.8788 34.4853C80.2581 35.4994 81.544 38.1629 80.7799 40.6977Z" fill="white"/>
</g>
<defs>
<clipPath id="clip0">
<rect width="60" height="60" fill="white" transform="translate(21 20)"/>
</clipPath>
</defs>
</svg>
