<svg width="100" height="100" viewBox="0 0 100 100" fill="none" xmlns="http://www.w3.org/2000/svg">
<circle cx="50" cy="50" r="50" fill="#454925"/>
<g clip-path="url(#clip0)">
<path d="M69.0672 40.7148C69.9737 40.7148 70.7086 39.9799 70.7086 39.0734V21.6414C70.7085 20.7349 69.9737 20 69.0672 20H51.6351C50.7286 20 49.9937 20.7349 49.9937 21.6414V39.0734C49.9937 39.9799 50.7286 40.7148 51.6351 40.7148H69.0672Z" fill="white"/>
<path d="M70.7488 54.8175C70.7488 54.1418 71.0227 53.5299 71.4656 53.087C71.9161 52.6352 72.5428 52.3596 73.2324 52.3693C74.5815 52.3881 75.6458 53.5314 75.6458 54.8807V65.3405C75.6458 67.2846 75.0823 69.1865 74.0239 70.8168L73.3107 71.9162C73.2371 72.0308 73.1973 72.1648 73.1973 72.3012V78.1962C73.1973 79.1926 72.3895 80.0004 71.3931 80.0004H55.6172C54.6207 80.0004 53.8129 79.1926 53.8129 78.1962V73.0397C53.8129 72.8442 53.7285 72.6584 53.5824 72.5292L53.2904 72.2734C52.0655 71.197 51.2872 69.703 51.1074 68.0823L50.4992 62.5831C50.2011 59.8835 51.2112 57.2045 53.218 55.3739L56.0587 52.7817V41.5166C56.0587 40.8408 56.3327 40.2278 56.7755 39.7849C57.2263 39.3355 57.8497 39.06 58.5373 39.0683C59.8883 39.0846 60.9558 40.2286 60.9558 41.5797V51.3518C60.9558 50.0003 62.0515 48.9033 63.4043 48.9033C64.0801 48.9033 64.6919 49.1772 65.136 49.6213C65.5789 50.0642 65.8528 50.6761 65.8528 51.3518V53.3877C65.8528 52.7107 66.1268 52.0988 66.5696 51.6559C67.0193 51.2063 67.6431 50.9308 68.3312 50.9394C69.6818 50.956 70.7487 52.1 70.7487 53.4508V54.8175H70.7488Z" fill="#F7CAA5"/>
<path d="M64.5602 49.1929C64.2158 49.0079 63.8225 48.9026 63.4046 48.9026C62.0518 48.9026 60.9561 49.9995 60.9561 51.3511V55.8354C62.2328 55.8354 63.2679 54.8004 63.2679 53.5236V51.3511C63.2679 50.4176 63.791 49.606 64.5602 49.1929Z" fill="#EFBD94"/>
<path d="M57.2257 73.0394C57.2257 72.8439 57.1412 72.6581 56.9952 72.5289L56.7031 72.2731C55.4783 71.1967 54.6999 69.7027 54.5201 68.082L53.9119 62.5828C53.6138 59.8832 54.6239 57.2042 56.6307 55.3736L56.9766 55.058V52.9124H55.9154L53.218 55.3737C51.2112 57.2043 50.2011 59.8834 50.4992 62.5829L51.1074 68.0821C51.2872 69.7028 52.0655 71.1968 53.2904 72.2732L53.5825 72.5291C53.7285 72.6582 53.8129 72.844 53.8129 73.0395V78.1959C53.8129 79.1923 54.6208 80.0001 55.6172 80.0001H57.8044C57.4493 79.6707 57.2257 79.2014 57.2257 78.6786V73.0394Z" fill="#EFBD94"/>
<path d="M58.5076 41.5162C58.5076 40.8404 58.7815 40.2273 59.2244 39.7844C59.3753 39.6341 59.5441 39.501 59.7295 39.3936C59.369 39.1848 58.9542 39.0676 58.5076 39.0676C57.8318 39.0676 57.22 39.3416 56.7759 39.7844C56.333 40.2273 56.0591 40.8404 56.0591 41.5162V59.713C57.4114 59.713 58.5076 58.6168 58.5076 57.2645V41.5162Z" fill="#EFBD94"/>
<path d="M25.9964 40.7148H43.4284C44.3349 40.7148 45.0698 39.9799 45.0698 39.0734V21.6414C45.0698 20.7349 44.3349 20 43.4284 20H25.9964C25.0899 20 24.355 20.7349 24.355 21.6414V39.0734C24.355 39.9799 25.0899 40.7148 25.9964 40.7148Z" fill="#FFC107"/>
<path d="M72.5619 54.9493C72.5619 54.2735 72.8359 53.6617 73.2788 53.2188C73.5515 52.9454 73.8897 52.7342 74.2665 52.614C73.9432 52.4566 73.5811 52.3687 73.1975 52.3687C72.5218 52.3687 71.9087 52.6426 71.4658 53.0867C71.023 53.5296 70.749 54.1414 70.749 54.8172V55.8357H71.6756C72.165 55.8357 72.5619 55.4388 72.5619 54.9493Z" fill="#EFBD94"/>
<path d="M68.0358 53.3872C68.0358 52.7102 68.3098 52.0984 68.7526 51.6555C68.9382 51.4699 69.1528 51.3123 69.39 51.1938C69.0611 51.0295 68.6931 50.9387 68.3003 50.9387C67.6246 50.9387 67.0127 51.2127 66.5698 51.6555C66.127 52.0984 65.853 52.7102 65.853 53.3872V55.8358C67.0586 55.8358 68.0359 54.8584 68.0359 53.6529V53.3872H68.0358Z" fill="#EFBD94"/>
</g>
<defs>
<clipPath id="clip0">
<rect width="60" height="60" fill="white" transform="translate(20 20)"/>
</clipPath>
</defs>
</svg>
