<svg width="100" height="100" viewBox="0 0 100 100" fill="none" xmlns="http://www.w3.org/2000/svg">
<circle cx="50" cy="50" r="50" fill="#FFC107"/>
<rect x="61" y="41" width="18" height="18" rx="2" fill="white"/>
<rect x="61.72" y="41.72" width="16.56" height="15.84" rx="2" fill="#A8A8A8"/>
<mask id="mask0" mask-type="alpha" maskUnits="userSpaceOnUse" x="61" y="41" width="18" height="17">
<rect x="61.72" y="41.72" width="16.56" height="15.84" rx="2" fill="#F2F2F2"/>
</mask>
<g mask="url(#mask0)">
<path fill-rule="evenodd" clip-rule="evenodd" d="M61.5813 54.9516C61.5813 54.9516 65.0007 48.3397 66.0459 48.438C67.3326 48.5687 69.295 53.8647 69.295 53.8647C69.295 53.8647 70.8354 50.5604 72.0007 50.6363C73.4733 50.7366 78.7751 58.1748 78.7751 58.1748L61.3374 58.0248L61.5813 54.9516Z" fill="#454925"/>
</g>
<circle cx="75.76" cy="44.2399" r="1.44" fill="#FFC107"/>
<rect x="21" y="61" width="18" height="18" rx="2" fill="white"/>
<rect x="21.72" y="61.72" width="16.56" height="15.84" rx="2" fill="#A8A8A8"/>
<mask id="mask1" mask-type="alpha" maskUnits="userSpaceOnUse" x="21" y="61" width="18" height="17">
<rect x="21.72" y="61.72" width="16.56" height="15.84" rx="2" fill="#F2F2F2"/>
</mask>
<g mask="url(#mask1)">
<path fill-rule="evenodd" clip-rule="evenodd" d="M21.5813 74.9516C21.5813 74.9516 25.0007 68.3397 26.0459 68.438C27.3326 68.5687 29.295 73.8647 29.295 73.8647C29.295 73.8647 30.8354 70.5604 32.0007 70.6363C33.4733 70.7366 38.7751 78.1748 38.7751 78.1748L21.3374 78.0248L21.5813 74.9516Z" fill="#454925"/>
</g>
<circle cx="35.76" cy="64.2399" r="1.44" fill="#FFC107"/>
<rect x="21" y="21" width="18" height="18" rx="2" fill="white"/>
<rect x="21.72" y="21.72" width="16.56" height="15.84" rx="2" fill="#A8A8A8"/>
<mask id="mask2" mask-type="alpha" maskUnits="userSpaceOnUse" x="21" y="21" width="18" height="17">
<rect x="21.72" y="21.72" width="16.56" height="15.84" rx="2" fill="#F2F2F2"/>
</mask>
<g mask="url(#mask2)">
<path fill-rule="evenodd" clip-rule="evenodd" d="M21.5813 34.9516C21.5813 34.9516 25.0007 28.3397 26.0459 28.438C27.3326 28.5687 29.295 33.8647 29.295 33.8647C29.295 33.8647 30.8354 30.5604 32.0007 30.6363C33.4733 30.7366 38.7751 38.1748 38.7751 38.1748L21.3374 38.0248L21.5813 34.9516Z" fill="#454925"/>
</g>
<circle cx="35.76" cy="24.2399" r="1.44" fill="#FFC107"/>
<rect x="61" y="21" width="18" height="18" rx="2" fill="white"/>
<rect x="61.72" y="21.72" width="16.56" height="15.84" rx="2" fill="#A8A8A8"/>
<mask id="mask3" mask-type="alpha" maskUnits="userSpaceOnUse" x="61" y="21" width="18" height="17">
<rect x="61.72" y="21.72" width="16.56" height="15.84" rx="2" fill="#F2F2F2"/>
</mask>
<g mask="url(#mask3)">
<path fill-rule="evenodd" clip-rule="evenodd" d="M61.5813 34.9516C61.5813 34.9516 65.0007 28.3397 66.0459 28.438C67.3326 28.5687 69.295 33.8647 69.295 33.8647C69.295 33.8647 70.8354 30.5604 72.0007 30.6363C73.4733 30.7366 78.7751 38.1748 78.7751 38.1748L61.3374 38.0248L61.5813 34.9516Z" fill="#454925"/>
</g>
<circle cx="75.76" cy="24.2399" r="1.44" fill="#FFC107"/>
<rect x="41" y="21" width="18" height="18" rx="2" fill="white"/>
<rect x="41.72" y="21.72" width="16.56" height="15.84" rx="2" fill="#A8A8A8"/>
<mask id="mask4" mask-type="alpha" maskUnits="userSpaceOnUse" x="41" y="21" width="18" height="17">
<rect x="41.72" y="21.72" width="16.56" height="15.84" rx="2" fill="#F2F2F2"/>
</mask>
<g mask="url(#mask4)">
<path fill-rule="evenodd" clip-rule="evenodd" d="M41.5813 34.9516C41.5813 34.9516 45.0007 28.3397 46.0459 28.438C47.3326 28.5687 49.295 33.8647 49.295 33.8647C49.295 33.8647 50.8354 30.5604 52.0007 30.6363C53.4733 30.7366 58.7751 38.1748 58.7751 38.1748L41.3374 38.0248L41.5813 34.9516Z" fill="#454925"/>
</g>
<circle cx="55.76" cy="24.2399" r="1.44" fill="#FFC107"/>
<rect x="41" y="61" width="18" height="18" rx="2" fill="white"/>
<rect x="41.72" y="61.72" width="16.56" height="15.84" rx="2" fill="#A8A8A8"/>
<mask id="mask5" mask-type="alpha" maskUnits="userSpaceOnUse" x="41" y="61" width="18" height="17">
<rect x="41.72" y="61.72" width="16.56" height="15.84" rx="2" fill="#F2F2F2"/>
</mask>
<g mask="url(#mask5)">
<path fill-rule="evenodd" clip-rule="evenodd" d="M41.5813 74.9516C41.5813 74.9516 45.0007 68.3397 46.0459 68.438C47.3326 68.5687 49.295 73.8647 49.295 73.8647C49.295 73.8647 50.8354 70.5604 52.0007 70.6363C53.4733 70.7366 58.7751 78.1748 58.7751 78.1748L41.3374 78.0248L41.5813 74.9516Z" fill="#454925"/>
</g>
<circle cx="55.76" cy="64.2399" r="1.44" fill="#FFC107"/>
<rect x="41" y="41" width="18" height="18" rx="2" fill="white"/>
<rect x="41.72" y="41.72" width="16.56" height="15.84" rx="2" fill="#A8A8A8"/>
<mask id="mask6" mask-type="alpha" maskUnits="userSpaceOnUse" x="41" y="41" width="18" height="17">
<rect x="41.72" y="41.72" width="16.56" height="15.84" rx="2" fill="#F2F2F2"/>
</mask>
<g mask="url(#mask6)">
<path fill-rule="evenodd" clip-rule="evenodd" d="M41.5813 54.9516C41.5813 54.9516 45.0007 48.3397 46.0459 48.438C47.3326 48.5687 49.295 53.8647 49.295 53.8647C49.295 53.8647 50.8354 50.5604 52.0007 50.6363C53.4733 50.7366 58.7751 58.1748 58.7751 58.1748L41.3374 58.0248L41.5813 54.9516Z" fill="#454925"/>
</g>
<circle cx="55.76" cy="44.2399" r="1.44" fill="#FFC107"/>
<rect x="26" y="35" width="18" height="18" rx="2" fill="white"/>
<rect x="26.72" y="35.72" width="16.56" height="15.84" rx="2" fill="#A8A8A8"/>
<mask id="mask7" mask-type="alpha" maskUnits="userSpaceOnUse" x="26" y="35" width="18" height="17">
<rect x="26.72" y="35.72" width="16.56" height="15.84" rx="2" fill="#F2F2F2"/>
</mask>
<g mask="url(#mask7)">
<path fill-rule="evenodd" clip-rule="evenodd" d="M26.5813 48.9516C26.5813 48.9516 30.0007 42.3397 31.0459 42.438C32.3326 42.5687 34.295 47.8647 34.295 47.8647C34.295 47.8647 35.8354 44.5604 37.0007 44.6363C38.4733 44.7366 43.7751 52.1748 43.7751 52.1748L26.3374 52.0248L26.5813 48.9516Z" fill="#454925"/>
</g>
<circle cx="40.76" cy="38.2399" r="1.44" fill="#FFC107"/>
<rect x="61" y="61" width="18" height="18" rx="2" fill="white"/>
<rect x="61.72" y="61.72" width="16.56" height="15.84" rx="2" fill="#A8A8A8"/>
<mask id="mask8" mask-type="alpha" maskUnits="userSpaceOnUse" x="61" y="61" width="18" height="17">
<rect x="61.72" y="61.72" width="16.56" height="15.84" rx="2" fill="#F2F2F2"/>
</mask>
<g mask="url(#mask8)">
<path fill-rule="evenodd" clip-rule="evenodd" d="M61.5813 74.9516C61.5813 74.9516 65.0007 68.3397 66.0459 68.438C67.3326 68.5687 69.295 73.8647 69.295 73.8647C69.295 73.8647 70.8354 70.5604 72.0007 70.6363C73.4733 70.7366 78.7751 78.1748 78.7751 78.1748L61.3374 78.0248L61.5813 74.9516Z" fill="#454925"/>
</g>
<circle cx="75.76" cy="64.2399" r="1.44" fill="#FFC107"/>
</svg>
