<svg width="80" height="80" viewBox="0 0 80 80" fill="none" xmlns="http://www.w3.org/2000/svg">
<circle cx="40" cy="40" r="40" fill="#353535"/>
<g clip-path="url(#clip0)">
<path d="M51.5322 58.4334C51.0805 58.4334 50.6501 58.1708 50.4577 57.7305C50.1986 57.1373 50.4692 56.4465 51.0623 56.1874C57.4981 53.3755 61.6565 47.0215 61.6565 39.9998C61.6562 32.9784 57.4981 26.6246 51.063 23.8127C50.4698 23.5536 50.1991 22.8627 50.4583 22.2697C50.7175 21.6766 51.4083 21.4056 52.0014 21.6651C59.2901 24.8499 64 32.0467 64.0003 39.9997C64.0003 47.9531 59.2902 55.1501 52.0008 58.3351C51.848 58.4019 51.6888 58.4334 51.5322 58.4334Z" fill="white"/>
<path d="M51.5321 49.5912C51.2104 49.5912 50.8901 49.4595 50.6586 49.201C50.227 48.7187 50.2679 47.978 50.7501 47.5462C52.8948 45.6263 54.1248 42.8757 54.1248 39.9997C54.1248 37.1238 52.8948 34.3732 50.7501 32.4533C50.2679 32.0216 50.227 31.2808 50.6586 30.7985C51.0903 30.3164 51.8312 30.2754 52.3134 30.707C54.9541 33.0709 56.4686 36.458 56.4686 39.9996C56.4686 43.5413 54.9541 46.9284 52.3134 49.2923C52.0898 49.4929 51.8104 49.5912 51.5321 49.5912Z" fill="#FFC107"/>
<path d="M44.5297 24.5195C44.1358 24.3199 43.663 24.3587 43.307 24.6199L34.2023 31.2965H25.1719C24.5248 31.2965 24 31.8212 24 32.4684V47.5309C24 48.1781 24.5248 48.7028 25.1719 48.7028H34.2023L43.307 55.3796C43.5119 55.5299 43.7552 55.6065 44.0002 55.6065C44.1809 55.6065 44.3624 55.5647 44.5297 55.4799C44.9236 55.2804 45.1719 54.8762 45.1719 54.4346V25.5649C45.1719 25.1233 44.9236 24.7192 44.5297 24.5195Z" fill="white"/>
</g>
<defs>
<clipPath id="clip0">
<rect width="40" height="40" fill="white" transform="translate(24 20)"/>
</clipPath>
</defs>
</svg>
