<svg width="80" height="80" viewBox="0 0 80 80" fill="none" xmlns="http://www.w3.org/2000/svg">
<circle cx="40" cy="40" r="40" fill="#FFC107"/>
<path d="M51.9229 23.5156V56.4844C51.9229 58.4227 50.3455 60 48.4072 60H25.5166C23.5783 60 22.001 58.4227 22.001 56.4844V23.5156C22.001 21.5773 23.5783 20 25.5166 20H48.4072C50.3455 20 51.9229 21.5773 51.9229 23.5156Z" fill="white"/>
<path d="M46.9229 28.75C46.9229 29.3969 46.3979 29.9219 45.751 29.9219H28.251C27.6041 29.9219 27.0791 29.3969 27.0791 28.75C27.0791 28.1031 27.6041 27.5781 28.251 27.5781H45.751C46.3979 27.5781 46.9229 28.1031 46.9229 28.75Z" fill="#353535"/>
<path d="M43.1729 35C43.1729 35.6469 42.6479 36.1719 42.001 36.1719H28.251C27.6041 36.1719 27.0791 35.6469 27.0791 35C27.0791 34.3531 27.6041 33.8281 28.251 33.8281H42.001C42.6479 33.8281 43.1729 34.3531 43.1729 35Z" fill="#353535"/>
<path d="M39.4229 41.25C39.4229 41.8969 38.8979 42.4219 38.251 42.4219H28.251C27.6041 42.4219 27.0791 41.8969 27.0791 41.25C27.0791 40.6031 27.6041 40.0781 28.251 40.0781H38.251C38.8979 40.0781 39.4229 40.6031 39.4229 41.25Z" fill="#353535"/>
<path d="M61.6759 37.4445C61.5298 37.6914 61.0416 38.1929 57.7697 41.4219C55.8736 43.2929 53.0423 46.0812 48.8017 50.2672C48.5978 50.4695 49.0588 50.2226 41.8447 53.589C40.8486 54.0555 39.8283 53.014 40.2869 52.0312C43.6588 44.807 43.4056 45.2758 43.6142 45.0695C47.8408 40.8429 50.6486 38.0336 52.515 36.1672C56.1423 32.5383 56.2134 32.4695 56.222 32.4789C57.1619 31.7195 58.5127 31.7945 59.358 32.6398C61.4752 34.757 61.3728 34.6469 61.4752 34.7742C62.0752 35.5054 62.1853 36.575 61.6759 37.4445Z" fill="#353535"/>
<path d="M61.6761 37.4445C61.53 37.6914 61.0417 38.1929 57.7698 41.4218L57.7636 41.4164L55.1276 38.7804L52.5151 36.1687V36.1672C56.1425 32.5383 56.2136 32.4695 56.2222 32.4789C57.162 31.7195 58.5128 31.7945 59.3581 32.6398C59.7464 33.0281 60.0597 33.3414 60.3136 33.5945C61.4448 34.725 61.3917 34.6703 61.4753 34.7742C62.0753 35.5054 62.1855 36.575 61.6761 37.4445Z" fill="#892920"/>
</svg>
