<svg width="45" height="45" viewBox="0 0 45 45" fill="none" xmlns="http://www.w3.org/2000/svg">
<path d="M2.83717 4.84821H13.5993C14.3041 4.84821 14.9552 5.2247 15.3069 5.83547L17.0782 8.25521C17.4299 8.86598 18.081 9.24247 18.7857 9.24247H44.9999V36.8689C44.9999 38.3198 43.8236 39.4961 42.3727 39.4961H2.6272C1.17628 39.4961 0 38.3198 0 36.8689V12.3071C0 10.2763 0.313746 8.25771 0.930187 6.32276C1.15601 5.45436 1.93994 4.84821 2.83717 4.84821Z" fill="#FFC107"/>
<path d="M38.6845 8.78995H4.09448V23.4018H38.6845V8.78995Z" fill="#EBF0F3"/>
<path d="M43.0296 6.16101H32.1844C31.4131 6.16101 30.7127 6.61102 30.3922 7.3125L28.5364 11.3741C28.2158 12.0756 27.5155 12.5256 26.7442 12.5256H0V37.5248C0 38.9757 1.17628 40.152 2.6272 40.152H42.3728C43.8237 40.152 45 38.9757 45 37.5248V8.13141C45 7.04325 44.1178 6.16101 43.0296 6.16101Z" fill="#FFC107"/>
</svg>
