<svg width="100" height="100" viewBox="0 0 100 100" fill="none" xmlns="http://www.w3.org/2000/svg">
<circle cx="50" cy="50" r="50" fill="#FFC107"/>
<rect x="30" y="20" width="40" height="60" rx="3" fill="#F2F2F2"/>
<rect x="33" y="25" width="16" height="4" rx="2" fill="#353535"/>
<rect x="33" y="33" width="16" height="4" rx="2" fill="#353535"/>
<path d="M57.5968 33.01V31.94H59.8568V39H58.6568V33.01H57.5968Z" fill="black"/>
<path d="M38.5631 57.11C39.6431 56.37 40.5064 55.6467 41.1531 54.94C41.8064 54.2267 42.1331 53.5667 42.1331 52.96C42.1331 52.6 42.0431 52.3133 41.8631 52.1C41.6898 51.8867 41.4064 51.78 41.0131 51.78C40.6064 51.78 40.2998 51.9133 40.0931 52.18C39.8864 52.44 39.7698 52.8133 39.7431 53.3H38.6331C38.6798 52.4933 38.9264 51.8767 39.3731 51.45C39.8264 51.0233 40.4031 50.81 41.1031 50.81C41.7898 50.81 42.3264 50.9933 42.7131 51.36C43.1064 51.72 43.3031 52.22 43.3031 52.86C43.3031 53.3733 43.1431 53.8933 42.8231 54.42C42.5098 54.9467 42.1098 55.4333 41.6231 55.88C41.1364 56.32 40.6331 56.7 40.1131 57.02H43.4631V57.95H38.5631V57.11Z" fill="black"/>
<path d="M59.0313 67.72C59.4979 67.72 59.8979 67.8033 60.2313 67.97C60.5646 68.13 60.8146 68.3533 60.9813 68.64C61.1546 68.9267 61.2413 69.2467 61.2413 69.6C61.2413 70.0467 61.1146 70.42 60.8613 70.72C60.6146 71.0133 60.2646 71.19 59.8113 71.25V71.3C60.2979 71.44 60.6779 71.65 60.9513 71.93C61.2313 72.2033 61.3713 72.5833 61.3713 73.07C61.3713 73.6633 61.1746 74.1467 60.7813 74.52C60.3879 74.8867 59.8246 75.07 59.0913 75.07C58.3379 75.07 57.7313 74.88 57.2713 74.5C56.8113 74.1133 56.5479 73.5433 56.4813 72.79H57.6113C57.6513 73.19 57.7946 73.51 58.0413 73.75C58.2879 73.9833 58.6213 74.1 59.0413 74.1C59.4346 74.1 59.7346 73.9967 59.9413 73.79C60.1546 73.5833 60.2613 73.3167 60.2613 72.99C60.2613 72.5967 60.1079 72.2967 59.8013 72.09C59.5013 71.8833 59.0646 71.78 58.4913 71.78H58.2213V70.84H58.4913C59.5779 70.8533 60.1213 70.4833 60.1213 69.73C60.1213 69.4033 60.0213 69.1467 59.8213 68.96C59.6213 68.7733 59.3479 68.68 59.0013 68.68C58.6546 68.68 58.3646 68.7867 58.1313 69C57.8979 69.2067 57.7579 69.51 57.7113 69.91H56.5913C56.6379 69.2167 56.8713 68.68 57.2913 68.3C57.7113 67.9133 58.2913 67.72 59.0313 67.72Z" fill="black"/>
<rect x="33" y="43" width="16" height="4" rx="2" fill="#353535"/>
<rect x="51" y="43" width="16" height="4" rx="2" fill="#353535"/>
<rect x="33" y="61" width="16" height="4" rx="2" fill="#353535"/>
<rect x="33" y="71" width="16" height="4" rx="2" fill="#353535"/>
<rect x="51" y="61" width="16" height="4" rx="2" fill="#353535"/>
<rect x="51" y="52" width="16" height="4" rx="2" fill="#353535"/>
<rect x="51" y="25" width="16" height="4" rx="2" fill="#353535"/>
</svg>
