<svg width="80" height="80" viewBox="0 0 80 80" fill="none" xmlns="http://www.w3.org/2000/svg">
<circle cx="40" cy="40" r="40" fill="#FFC107"/>
<g clip-path="url(#clip0)">
<path d="M40 40H20V24.5833C20 22.0517 22.0517 20 24.5833 20H40V40Z" fill="#81D4FA"/>
<path d="M40 60H24.5833C22.0517 60 20 57.9483 20 55.4167V40H40V60Z" fill="#03A9F4"/>
<path d="M40 20H24.5833C22.0517 20 20 22.0517 20 24.5833V40H40V20Z" fill="#454925"/>
<path d="M40 40H20V55.4167C20 57.9483 22.0517 60 24.5833 60H40V40Z" fill="#353535"/>
<path d="M60 40H40V20H55.4167C57.9483 20 60 22.0517 60 24.5833V40Z" fill="#892920"/>
<path d="M55.4167 60H40V40H60V55.4167C60 57.9483 57.9483 60 55.4167 60Z" fill="white"/>
<path d="M53.75 53.3333H46.25C45.56 53.3333 45 52.7733 45 52.0833C45 51.3933 45.56 50.8333 46.25 50.8333H53.75C54.44 50.8333 55 51.3933 55 52.0833C55 52.7733 54.44 53.3333 53.75 53.3333Z" fill="#353535"/>
<path d="M53.75 48.3333H46.25C45.56 48.3333 45 47.7733 45 47.0833C45 46.3933 45.56 45.8333 46.25 45.8333H53.75C54.44 45.8333 55 46.3933 55 47.0833C55 47.7733 54.44 48.3333 53.75 48.3333Z" fill="#353535"/>
<path d="M27.9166 53.3333C27.5966 53.3333 27.2766 53.2117 27.0332 52.9667C26.5449 52.4783 26.5449 51.6867 27.0332 51.1983L31.1999 47.0317C31.6882 46.5433 32.4799 46.5433 32.9682 47.0317C33.4566 47.52 33.4566 48.3117 32.9682 48.8L28.8016 52.9667C28.5566 53.2117 28.2366 53.3333 27.9166 53.3333Z" fill="#F5F5F5"/>
<path d="M32.0832 53.3333C31.7632 53.3333 31.4432 53.2117 31.1999 52.9667L27.0332 48.8C26.5449 48.3117 26.5449 47.52 27.0332 47.0317C27.5216 46.5433 28.3132 46.5433 28.8016 47.0317L32.9682 51.1983C33.4566 51.6867 33.4566 52.4783 32.9682 52.9667C32.7232 53.2117 32.4032 53.3333 32.0832 53.3333Z" fill="#F5F5F5"/>
<path d="M53.75 31.6666H46.25C45.56 31.6666 45 31.1066 45 30.4166C45 29.7266 45.56 29.1666 46.25 29.1666H53.75C54.44 29.1666 55 29.7266 55 30.4166C55 31.1066 54.44 31.6666 53.75 31.6666Z" fill="#F5F5F5"/>
<path d="M30 35C29.31 35 28.75 34.44 28.75 33.75V27.9166C28.75 27.2266 29.31 26.6666 30 26.6666C30.69 26.6666 31.25 27.2266 31.25 27.9166V33.75C31.25 34.44 30.69 35 30 35Z" fill="#F5F5F5"/>
<path d="M32.9168 32.0834H27.0835C26.3935 32.0834 25.8335 31.5234 25.8335 30.8334C25.8335 30.1434 26.3935 29.5834 27.0835 29.5834H32.9168C33.6068 29.5834 34.1668 30.1434 34.1668 30.8334C34.1668 31.5234 33.6068 32.0834 32.9168 32.0834Z" fill="#F5F5F5"/>
</g>
<defs>
<clipPath id="clip0">
<rect width="40" height="40" fill="white" transform="translate(20 20)"/>
</clipPath>
</defs>
</svg>
