<svg width="100" height="100" viewBox="0 0 100 100" fill="none" xmlns="http://www.w3.org/2000/svg">
<circle cx="50" cy="50" r="50" fill="#FFC107"/>
<g clip-path="url(#clip0)">
<path d="M27.8395 72.2857C23.0024 66.7029 20.3389 59.5543 20.3389 52.1566C20.3389 34.6501 32.8715 21.4485 49.4903 21.4485C66.4088 21.4485 79.6615 34.893 79.6615 52.057C79.6615 59.2681 77.1884 65.4224 71.8791 71.4269L68.9368 68.8246C73.5751 63.5818 75.7352 58.2533 75.7352 52.057C75.7352 37.0954 64.2071 25.375 49.4903 25.375C35.1095 25.375 24.2652 36.8884 24.2652 52.1567C24.2652 58.61 26.5882 64.8446 30.8072 69.7142L27.8395 72.2857Z" fill="#353535"/>
<path d="M33.0708 50.0864C36.8513 50.0864 39.9443 53.1794 39.9443 56.9599V73.1264C39.9443 76.9068 36.8513 79.9999 33.0708 79.9999" fill="#454925"/>
<path d="M29.4966 80H33.2357V50.0864H29.9995C29.7217 50.0864 29.4966 50.3116 29.4966 50.5893V80Z" fill="white"/>
<path d="M29.4962 73.3248H25.831C25.5533 73.3248 25.3281 73.0997 25.3281 72.8219V57.2978C25.3281 57.0201 25.5533 56.7949 25.831 56.7949H29.4963V73.3248H29.4962Z" fill="#892920"/>
<path d="M66.8334 50.0864C63.053 50.0864 59.96 53.1794 59.96 56.9599V73.1264C59.96 76.9068 63.053 79.9999 66.8334 79.9999" fill="#454925"/>
<path d="M69.9047 80H66.6685V50.0864H69.9047C70.1825 50.0864 70.4076 50.3116 70.4076 50.5893V79.497C70.4076 79.7748 70.1825 80 69.9047 80Z" fill="white"/>
<path d="M70.4072 73.3248H74.0726C74.3503 73.3248 74.5754 73.0997 74.5754 72.8219V57.2978C74.5754 57.0201 74.3503 56.7949 74.0726 56.7949H70.4072V73.3248Z" fill="#892920"/>
<path d="M76.6705 35.019C71.0543 25.7268 60.9608 20 50.0604 20C38.9972 20 28.8552 25.7343 23.3218 35.0403C23.008 35.5681 23.2109 36.2557 23.7498 36.5498L28.3358 39.0526C28.8557 39.3364 29.4937 39.1462 29.8014 38.64C34.0271 31.6855 41.6922 27.4077 50.0606 27.4077C58.292 27.4077 65.9203 31.696 70.2203 38.6691C70.5315 39.1735 71.1715 39.3588 71.6894 39.0707L76.2546 36.5315C76.7909 36.2333 76.9881 35.5445 76.6705 35.019Z" fill="white"/>
</g>
<defs>
<clipPath id="clip0">
<rect width="60" height="60" fill="white" transform="translate(20 20)"/>
</clipPath>
</defs>
</svg>
