<svg width="100" height="100" viewBox="0 0 100 100" fill="none" xmlns="http://www.w3.org/2000/svg">
<circle cx="50" cy="50" r="50" fill="#454925"/>
<g clip-path="url(#clip0)">
<path d="M62.0757 51.5001C62.0757 49.3745 63.6828 47.6527 65.6663 47.6527H65.7456C67.7251 47.6527 69.3312 49.3685 69.3362 51.4886C69.3526 58.426 69.3427 59.1076 69.3322 69.4691C69.3272 75.287 64.9234 80 59.4918 80H47.8315C44.2623 80 40.9729 77.9297 39.2357 74.5914L28.8384 54.617L29.9249 53.716C32.1742 51.6492 35.5554 51.9035 37.5135 54.2864L40.4224 57.8277L40.4394 33.4594C40.4419 31.3367 42.0489 29.616 44.03 29.616H44.0315C46.015 29.616 47.6221 31.3382 47.6221 33.4619V48.2107C47.6694 46.1309 49.2586 44.464 51.2102 44.464H51.2944C53.278 44.464 54.885 46.1863 54.885 48.3099V49.5485C54.885 47.4244 56.4936 45.7021 58.4756 45.7021H58.4846C60.4672 45.7021 62.0757 47.4244 62.0757 49.5485V51.5001Z" fill="#F7CAA5"/>
<path d="M62.1291 24.907H30.2779L33.4412 21.7437C33.8401 21.3448 33.8401 20.6981 33.4412 20.2992C33.0428 19.9003 32.3961 19.9003 31.9972 20.2992L27.3754 24.9209C26.9372 24.9907 26.5941 25.3358 26.5273 25.7746C26.4605 26.2134 26.6854 26.6452 27.0828 26.8421L31.9972 31.7566C32.3961 32.1555 33.0428 32.1555 33.4417 31.7566C33.8406 31.3577 33.8406 30.711 33.4417 30.3126L30.0785 26.9493H62.1291C62.693 26.9493 63.1503 26.4921 63.1503 25.9282C63.1503 25.3642 62.693 24.907 62.1291 24.907Z" fill="#FFC107"/>
<path d="M67.7957 20.363C70.9246 20.363 73.4606 22.899 73.4606 26.0279C73.4606 29.1568 70.9246 31.6928 67.7957 31.6928C64.6669 31.6928 62.1309 29.1568 62.1309 26.0279C62.1304 22.899 64.6669 20.3625 67.7957 20.363Z" fill="white"/>
</g>
<defs>
<clipPath id="clip0">
<rect width="60" height="60" fill="white" transform="translate(20 20)"/>
</clipPath>
</defs>
</svg>
