<svg width="100" height="100" viewBox="0 0 100 100" fill="none" xmlns="http://www.w3.org/2000/svg">
<circle cx="50" cy="50" r="50" fill="#FFC107"/>
<path d="M67.2954 79.1399C66.0717 79.4677 64.8139 78.7415 64.4861 77.518L58.4597 55.027C58.1318 53.8033 58.858 52.5455 60.0816 52.2178C61.3053 51.8899 62.5631 52.6161 62.8909 53.8398L68.9172 76.3307C69.2451 77.5543 68.5189 78.812 67.2954 79.1399Z" fill="#444444"/>
<path d="M32.7046 79.1399C33.9283 79.4677 35.1861 78.7415 35.5139 77.518L41.5402 55.027C41.8681 53.8033 41.1419 52.5455 39.9184 52.2178C38.6947 51.8899 37.4369 52.6161 37.1091 53.8398L31.0828 76.3306C30.7549 77.5543 31.4811 78.812 32.7046 79.1399Z" fill="#444444"/>
<path d="M50 71.786C49.5 71.786 49.0946 71.3807 49.0946 70.8806V60.6216C49.0946 60.1215 49.5 59.7162 50 59.7162C50.5 59.7162 50.9054 60.1215 50.9054 60.6216V70.8806C50.9054 71.3807 50.5 71.786 50 71.786Z" fill="#353535"/>
<path d="M50 75.771C51.3504 75.771 52.4451 74.6763 52.4451 73.3259C52.4451 71.9755 51.3504 70.8807 50 70.8807C48.6496 70.8807 47.5549 71.9755 47.5549 73.3259C47.5549 74.6763 48.6496 75.771 50 75.771Z" fill="#353535"/>
<path d="M75.3521 65.4214H24.6479C23.7145 65.4214 22.9577 64.6647 22.9577 63.7312V24.1677H77.0422V63.7312C77.0423 64.6646 76.2855 65.4214 75.3521 65.4214Z" fill="white"/>
<path d="M37.2284 49.3702C42.2923 49.3702 46.3974 45.2651 46.3974 40.2012C46.3974 35.1373 42.2923 31.0322 37.2284 31.0322C32.1646 31.0322 28.0595 35.1373 28.0595 40.2012C28.0595 45.2651 32.1646 49.3702 37.2284 49.3702Z" fill="#9D9D9D"/>
<path d="M37.2285 31.0322V40.2012H46.3974C46.3974 35.1373 42.2924 31.0322 37.2285 31.0322Z" fill="#892920"/>
<path d="M71.9407 35.2579H50.6529C50.1528 35.2579 49.7475 34.8526 49.7475 34.3525C49.7475 33.8525 50.1528 33.4471 50.6529 33.4471H71.9406C72.4406 33.4471 72.8459 33.8525 72.8459 34.3525C72.8461 34.8525 72.4407 35.2579 71.9407 35.2579Z" fill="#444444"/>
<path d="M71.9407 39.3644H50.6529C50.1528 39.3644 49.7475 38.959 49.7475 38.459C49.7475 37.9589 50.1528 37.5536 50.6529 37.5536H71.9406C72.4406 37.5536 72.8459 37.9589 72.8459 38.459C72.8459 38.959 72.4407 39.3644 71.9407 39.3644Z" fill="#444444"/>
<path d="M61.2968 43.4708H50.653C50.1529 43.4708 49.7476 43.0655 49.7476 42.5654C49.7476 42.0654 50.1529 41.66 50.653 41.66H61.2968C61.7968 41.66 62.2021 42.0654 62.2021 42.5654C62.2021 43.0655 61.7968 43.4708 61.2968 43.4708Z" fill="#444444"/>
<path d="M54.7943 61.68H52.742C52.2085 61.68 51.7762 61.2476 51.7762 60.7142V48.8833C51.7762 48.3499 52.2086 47.9176 52.742 47.9176H54.7943C55.3277 47.9176 55.76 48.35 55.76 48.8833V60.7141C55.7601 61.2476 55.3277 61.68 54.7943 61.68Z" fill="#9D9D9D"/>
<path d="M62.323 61.6799H60.2707C59.7372 61.6799 59.3049 61.2475 59.3049 60.7142V51.0121C59.3049 50.4787 59.7374 50.0464 60.2707 50.0464H62.323C62.8564 50.0464 63.2887 50.4788 63.2887 51.0121V60.7142C63.2887 61.2475 62.8563 61.6799 62.323 61.6799Z" fill="#353535"/>
<path d="M69.8516 61.68H67.7993C67.2658 61.68 66.8335 61.2476 66.8335 60.7143V54.7355C66.8335 54.2021 67.2659 53.7698 67.7993 53.7698H69.8516C70.385 53.7698 70.8173 54.2022 70.8173 54.7355V60.7143C70.8173 61.2476 70.385 61.68 69.8516 61.68Z" fill="#892920"/>
<path d="M47.8722 56.4264H28.0593C27.5593 56.4264 27.1539 56.021 27.1539 55.521C27.1539 55.021 27.5593 54.6156 28.0593 54.6156H47.8722C48.3723 54.6156 48.7776 55.021 48.7776 55.521C48.7776 56.021 48.3723 56.4264 47.8722 56.4264Z" fill="#444444"/>
<path d="M37.9658 60.5328H28.0593C27.5593 60.5328 27.1539 60.1275 27.1539 59.6274C27.1539 59.1274 27.5593 58.722 28.0593 58.722H37.9658C38.4658 58.722 38.8712 59.1274 38.8712 59.6274C38.8713 60.1275 38.4658 60.5328 37.9658 60.5328Z" fill="#444444"/>
<path d="M79.0343 27.555H20.9657C20.4324 27.555 20 27.1225 20 26.5892V21.7482C20 21.2148 20.4324 20.7825 20.9657 20.7825H79.0341C79.5676 20.7825 79.9999 21.2149 79.9999 21.7482V26.5892C80 27.1225 79.5676 27.555 79.0343 27.555Z" fill="#444444"/>
</svg>
